  <svg version="1.1" id="Layer_1" xmlns="http://www.w3.org/2000/svg" xmlns:xlink="http://www.w3.org/1999/xlink" x="0px"
    y="0px" viewBox="0 0 512 512" style="enable-background:new 0 0 512 512;" xml:space="preserve">
    <path style="fill:#E0E0E2;"
      d="M488.769,307.232c30.922,30.922,30.922,81.229,0,112.151c-12.745,12.745-29.073,20.595-46.702,22.661 c-2.099,17.891-10.167,34.425-23.186,47.216C403.968,503.922,384.228,512,363.302,512c-43.724,0-79.301-35.577-79.301-79.301 c0-20.926,8.078-40.666,22.741-55.579c2.864-2.921,5.922-5.58,9.14-7.987l-25.993-25.993l0.228-0.228L256,309.252l-59.892,59.892 c3.035,2.259,5.933,4.758,8.66,7.474c30.922,30.922,30.922,81.229,0,112.151c-15.461,15.461-35.771,23.186-56.07,23.186 c-20.31,0-40.62-7.725-56.081-23.186c-12.745-12.745-20.595-29.073-22.661-46.702c-17.891-2.099-34.425-10.167-47.216-23.186 C8.078,403.968,0,384.228,0,363.302c0-43.724,35.577-79.301,79.301-79.301c20.926,0,40.666,8.078,55.579,22.741 c3.195,3.138,6.082,6.515,8.66,10.075l26.129-26.118l0.011,0.011l33.877-33.9l-60.702-60.702c-2.259,3.035-4.758,5.933-7.474,8.66 c-15.461,15.461-35.771,23.186-56.081,23.186s-40.609-7.725-56.07-23.186c-30.922-30.922-30.922-81.229,0-112.151 c12.745-12.745,29.073-20.595,46.702-22.661C72.033,52.065,80.1,35.531,93.119,22.741C108.032,8.078,127.772,0,148.698,0 c43.724,0,79.301,35.577,79.301,79.301c0,20.926-8.078,40.666-22.741,55.579c-3.138,3.195-6.515,6.082-10.075,8.66l44.842,43.998 l-0.422,0.422L256,204.369l60.828-60.828c-3.377-2.453-6.595-5.157-9.596-8.158c-30.922-30.922-30.922-81.229,0-112.151 s81.229-30.922,112.151,0c12.745,12.745,20.595,29.073,22.661,46.702c17.891,2.099,34.425,10.167,47.216,23.186 C503.922,108.032,512,127.772,512,148.698c0,43.724-35.577,79.301-79.301,79.301c-20.926,0-40.666-8.078-55.579-22.741 c-2.921-2.864-5.58-5.922-7.987-9.14l-60.691,60.691l60.018,60.006c2.442-3.377,5.169-6.584,8.158-9.585 C407.539,276.31,457.847,276.31,488.769,307.232z" />
    <g>
      <path style="fill:#ACABB1;"
        d="M239.604,187.961L256,204.357v0.011l-52.441,52.441l-60.702-60.702 c-2.259,3.035-4.758,5.933-7.474,8.66c-15.461,15.461-35.771,23.186-56.081,23.186s-40.609-7.725-56.07-23.186 c-30.922-30.922-30.922-81.229,0-112.151c12.745-12.745,29.073-20.595,46.702-22.661C72.033,52.065,80.1,35.531,93.119,22.741 C108.032,8.078,127.772,0,148.698,0c43.724,0,79.301,35.577,79.301,79.301c0,20.926-8.078,40.666-22.741,55.579 c-3.138,3.195-6.515,6.082-10.075,8.66l44.842,43.998L239.604,187.961z" />
      <path style="fill:#ACABB1;"
        d="M488.769,419.383c-12.745,12.745-29.073,20.595-46.702,22.661 c-2.099,17.891-10.167,34.425-23.186,47.216C403.968,503.922,384.228,512,363.302,512c-43.724,0-79.301-35.577-79.301-79.301 c0-20.926,8.078-40.666,22.741-55.579c2.864-2.921,5.922-5.58,9.14-7.987l-25.993-25.992l0.228-0.228l-33.866-33.409l52.441-52.441 l59.767,59.755c2.442-3.377,5.169-6.584,8.158-9.585c30.922-30.922,81.229-30.922,112.151,0S519.69,388.461,488.769,419.383z" />
    </g>
    <path
      d="M79.306,227.956c20.305-0.002,40.617-7.732,56.074-23.189 c2.722-2.721,5.213-5.618,7.481-8.656l60.696,60.696l-17.75,17.75 l12.103,12.103l134.385-134.385c3.716,1.579,7.543,2.879,11.454,3.874l-90.319,90.319l12.103,12.103l90.304-90.304 c1.094,4.323,2.548,8.533,4.35,12.592l-29.152,29.152l12.103,12.103l25.995-25.996c2.409,3.215,5.067,6.274,7.984,9.141 c14.92,14.661,34.657,22.735,55.578,22.735c43.726,0,79.301-35.575,79.301-79.301c0-20.921-8.074-40.658-22.735-55.578 c-12.79-13.016-29.33-21.086-47.219-23.178c-2.063-17.635-9.914-33.96-22.662-46.707c-30.918-30.916-81.228-30.918-112.148,0 c-30.919,30.921-30.919,81.229,0,112.149c2.999,2.999,6.213,5.713,9.591,8.158l-60.826,60.826l-18.555-18.555l-12.103,12.101 l18.556,18.556l-28.238,28.238l-63.863-63.863c1.804-4.069,3.256-8.28,4.353-12.589l53.294,53.294l12.103-12.103l-53.279-53.279 c3.926-0.994,7.762-2.275,11.473-3.854l29.464,29.464l12.103-12.103l-26.126-26.125c3.558-2.584,6.937-5.463,10.079-8.66 c14.661-14.92,22.735-34.657,22.735-55.578c0-43.726-35.575-79.301-79.301-79.301c-20.921,0-40.658,8.074-55.578,22.735 c-13.017,12.79-21.086,29.33-23.178,47.218C52.302,72.02,35.976,79.872,23.23,92.619c-30.918,30.919-30.918,81.228,0,112.148 C38.692,220.228,58.995,227.958,79.306,227.956z M319.337,35.333c24.244-24.247,63.698-24.247,87.942,0 c24.247,24.246,24.247,63.698,0,87.943l12.104,12.103c13.091-13.092,21.04-29.954,22.836-48.139c13.182,2.017,25.33,8.195,34.834,17.868c11.496,11.699,17.827,27.176,17.827,43.581c0,34.29-27.896,62.186-62.186,62.186c-16.406,0-31.882-6.332-43.581-17.827c-9.678-9.509-15.857-21.663-17.872-34.853c2.233-0.224,4.467-0.531,6.696-0.947l-3.145-16.823c-20.206,3.773-40.942-2.635-55.456-17.151C295.09,99.032,295.09,59.579,319.337,35.333z M35.333,104.721c24.244-24.247,63.699-24.247,87.943,0l12.103-12.103c-13.091-13.091-29.954-21.04-48.139-22.836c2.017-13.182,8.195-25.33,17.868-34.834c11.699-11.496,27.176-17.827,43.581-17.827c34.29,0,62.186,27.896,62.186,62.186c0,16.406-6.332,31.882-17.827,43.581c-3.12,3.175-11.902,9.485-11.902,9.485c-6.994,4.294-14.772,7.136-22.945,8.385c-0.224-2.233-0.536-4.466-0.953-6.694l-16.823,3.145c2.872,15.371-0.163,31.035-8.159,44.044c0,0-6.259,8.68-8.991,11.411c-24.244,24.247-63.699,24.247-87.943,0C11.087,168.417,11.087,128.966,35.333,104.721z" />
    <path
      d="M376.621,307.233c-2.999,2.997-5.721,6.206-8.165,9.583l-60.011-60.011l19.363-19.363l-12.103-12.103L180.84,360.205c-7.228-3.204-14.906-5.316-22.779-6.254c-0.882-7.53-2.827-14.818-5.751-21.691l29.464-29.464l-12.103-12.103l-26.125,26.126c-2.584-3.558-5.463-6.937-8.66-10.079c-14.92-14.661-34.657-22.735-55.578-22.735c-43.726,0-79.301,35.575-79.301,79.301c0,20.921,8.074,40.658,22.735,55.578c12.79,13.016,29.33,21.086,47.218,23.178c2.063,17.635,9.914,33.96,22.662,46.707c15.46,15.459,35.767,23.188,56.074,23.188c20.307,0,40.615-7.729,56.073-23.188c30.919-30.921,30.919-81.229,0-112.149c-2.721-2.721-5.618-5.213-8.656-7.481l59.89-59.89l18.555,18.555l12.103-12.101l-18.556-18.558l28.238-28.238l63.378,63.378c-2.931,6.897-4.881,14.186-5.77,21.652c-7.94,0.93-15.609,3.05-22.809,6.246l-29.152-29.152l-12.103,12.104l25.995,25.995c-3.215,2.409-6.274,5.067-9.141,7.984c-14.661,14.92-22.735,34.657-22.735,55.578c0,43.726,35.575,79.301,79.301,79.301c20.921,0,40.658-8.074,55.578-22.735c13.017-12.79,21.085-29.33,23.179-47.219c17.635-2.064,33.96-9.914,46.707-22.662c30.918-30.919,30.918-81.228,0-112.148C457.85,276.315,407.54,276.315,376.621,307.233z M192.663,388.723c24.247,24.246,24.247,63.698,0,87.943c-24.244,24.247-63.698,24.247-87.942,0c-24.247-24.246-24.247-63.698,0-87.943L92.617,376.62c-13.091,13.091-21.04,29.954-22.836,48.139c-13.182-2.017-25.33-8.195-34.834-17.868c-11.496-11.699-17.827-27.176-17.827-43.581c0-34.29,27.896-62.186,62.186-62.186c16.406,0,31.882,6.332,43.581,17.827c3.175,3.12,9.485,11.902,9.485,11.902c4.294,6.995,7.136,14.772,8.385,22.945c-2.233,0.224-4.466,0.536-6.694,0.953l3.145,16.823c15.37-2.867,31.036,0.164,44.046,8.162C181.254,379.734,189.931,385.99,192.663,388.723z M476.667,407.279c-24.244,24.247-63.699,24.247-87.943,0l-12.103,12.104c13.091,13.091,29.954,21.04,48.139,22.836c-2.017,13.181-8.195,25.33-17.868,34.834c-11.699,11.496-27.176,17.827-43.581,17.827c-34.29,0-62.186-27.896-62.186-62.186c0-16.406,6.332-31.882,17.827-43.581c9.508-9.677,21.66-15.856,34.847-17.871c0.224,2.233,0.536,4.466,0.953,6.694l16.823-3.145c-3.777-20.211,2.636-40.942,17.151-55.456c24.244-24.247,63.699-24.247,87.943,0C500.913,343.583,500.913,383.034,476.667,407.279z" />
    <g>
      <path style="fill:#FFFFFF;"
        d="M147.031,466.59l-1.346,17.062c1.351,0.107,2.7,0.16,4.047,0.16c8.126,0,16.13-1.928,23.36-5.657 l-7.845-15.212C159.653,465.827,153.351,467.086,147.031,466.59z" />
      <path style="fill:#FFFFFF;"
        d="M173.683,456.769l12.103,12.103c19.886-19.887,19.886-52.244,0-72.131l-12.103,12.103 C186.897,422.057,186.897,443.557,173.683,456.769z" />
      <path style="fill:#FFFFFF;"
        d="M365.996,45.522l1.349-17.062c-9.498-0.751-18.977,1.15-27.409,5.497l7.845,15.212 C353.377,46.284,359.672,45.024,365.996,45.522z" />
      <path style="fill:#FFFFFF;"
        d="M339.345,103.268c-6.4-6.4-9.926-14.91-9.926-23.963c0-9.052,3.526-17.563,9.927-23.963 L327.243,43.24c-9.633,9.634-14.939,22.443-14.939,36.065c0,13.624,5.306,26.432,14.941,36.065L339.345,103.268z" />
    </g>
    <rect x="232.36" y="256.822" transform="matrix(0.7071 0.7071 -0.7071 0.7071 262.2487 -90.9556)" width="17.115"
      height="28.525" />
    <g>
      <path style="fill:#FFFFFF;"
        d="M83.229,199.538l-1.346-17.062c-6.319,0.502-12.621-0.763-18.216-3.648l-7.845,15.212 c7.231,3.729,15.233,5.657,23.36,5.657C80.528,199.696,81.878,199.644,83.229,199.538z" />
      <path style="fill:#FFFFFF;"
        d="M55.23,172.654c-6.4-6.4-9.926-14.91-9.926-23.963c0-9.052,3.526-17.561,9.926-23.961L43.13,112.627 c-9.634,9.634-14.941,22.442-14.941,36.064c0,13.624,5.306,26.432,14.941,36.065L55.23,172.654z" />
      <path style="fill:#FFFFFF;"
        d="M466.478,366.109l17.062,1.349c0.751-9.5-1.151-18.978-5.497-27.409l-15.212,7.845 C465.716,353.489,466.976,359.789,466.478,366.109z" />
      <path style="fill:#FFFFFF;"
        d="M396.629,327.354l12.103,12.103c13.208-13.212,34.709-13.214,47.926,0l12.101-12.103 C448.874,307.468,416.517,307.469,396.629,327.354z" />
    </g>
    <g></g>
    <g></g>
    <g></g>
    <g></g>
    <g></g>
    <g></g>
    <g></g>
    <g></g>
    <g></g>
    <g></g>
    <g></g>
    <g></g>
    <g></g>
    <g></g>
    <g></g>
  </svg>
