<svg id="Layer_1" data-name="Layer 1" xmlns="http://www.w3.org/2000/svg" viewBox="0 0 75.69 48.1"><defs><style>.cls-1{fill:#65666a;}.cls-2{fill:#20558a;}</style></defs><g id="Layer_2" data-name="Layer 2"><g id="Text_outlines" data-name="Text outlines"><path class="cls-1" d="M52.77,13.29V34.81H49.09V25.08H39.48v9.73H35.7V13.29h3.68v8.54H49V13.29ZM31.9,34.81H28.22V13.29H31.9Zm-7.35,0h-3.9L11,19h-.12V34.81H7.36V13.29h3.87L21,29.07h.11V13.29h3.56V34.81ZM65.84,24,52.77,0H4.33A4.36,4.36,0,0,0,0,4.39V43.67A4.36,4.36,0,0,0,4.29,48.1H52.67Z"/><path class="cls-2" d="M56,48,69.2,24,56,0h3.25a6.05,6.05,0,0,1,4.86,2.93L75.69,24,64.12,45.09A6,6,0,0,1,59.26,48Z"/></g></g></svg>
