<svg id="Layer_1" data-name="Layer 1" xmlns="http://www.w3.org/2000/svg" viewBox="0 0 77.08 48.07"><defs><style>.cls-1{fill:#bf063b;}.cls-2{fill:#65666a;}.cls-3{fill:#fff;}</style></defs><path class="cls-1" d="M61.57,0H57.42L70.35,23.79,56.92,47.91h4.15a4.29,4.29,0,0,0,3.79-2.25L77.08,23.79,65.39,2.28A4.36,4.36,0,0,0,61.57,0Z"/><path class="cls-2" d="M53.77.17H3.62A3.61,3.61,0,0,0,0,3.79V44.46a3.6,3.6,0,0,0,3.62,3.61H53.27L66.7,24Z"/><polygon class="cls-3" points="21.88 28.61 11.26 12.63 7.94 12.63 7.94 34.61 11.32 34.61 11.32 19 21.64 34.57 21.68 34.61 25.23 34.61 25.23 12.63 21.88 12.63 21.88 28.61"/><rect class="cls-3" x="29.15" y="12.63" width="3.79" height="21.98"/><polygon class="cls-3" points="50.52 12.63 50.52 22.04 40.3 22.04 40.3 12.63 36.52 12.63 36.52 34.61 40.3 34.61 40.3 25.7 50.52 25.7 50.52 34.61 54.27 34.61 54.27 12.63 50.52 12.63"/></svg>
