<svg id="Layer_1" data-name="Layer 1" xmlns="http://www.w3.org/2000/svg" viewBox="0 0 375.62 374.92"><defs><style>.cls-1{fill:#fff;}</style></defs><path class="cls-1" d="M58.84,166.91a57.83,57.83,0,0,0,46.53-23.32L149.78,188l-13,13,8.86,8.87L244,111.49a59,59,0,0,0,8.38,2.83l-66.12,66.13,8.86,8.86,66.11-66.11a57,57,0,0,0,3.19,9.21L243.1,153.76l8.87,8.86,19-19a58.91,58.91,0,0,0,5.84,6.69,58.06,58.06,0,1,0,47.61-99.1,58,58,0,1,0-91.7,53.92l-44.53,44.53L174.62,136l-8.84,8.9,13.59,13.58-20.68,20.68-46.78-46.76a57.76,57.76,0,0,0,3.19-9.22l39,39,8.86-8.86-39-39a56.39,56.39,0,0,0,8.4-2.82l21.58,21.57,8.86-8.86-19.12-19.11a59.55,59.55,0,0,0,7.38-6.35A58.06,58.06,0,1,0,52,51.23a58,58,0,0,0,6.86,115.68Zm175.74-141A45.53,45.53,0,1,1,299,90.3l8.86,8.86a57.68,57.68,0,0,0,16.72-35.25,45.53,45.53,0,1,1-52,52c1.64-.16,3.27-.39,4.9-.69l-2.3-12.32A45.53,45.53,0,0,1,234.55,26ZM26.65,76.68a45.59,45.59,0,0,1,64.39,0l8.86-8.86A57.68,57.68,0,0,0,64.65,51.1,45.53,45.53,0,1,1,142.12,90a102.72,102.72,0,0,1-8.72,7,45.09,45.09,0,0,1-16.79,6.13c-.17-1.63-.4-3.26-.7-4.9l-12.32,2.31a45.58,45.58,0,0,1-6,32.24S93,139.15,91,141.15A45.54,45.54,0,1,1,26.65,76.68Z"/><path class="cls-1" d="M276.52,225a57.13,57.13,0,0,0-6,7L226.61,188l14.17-14.16L231.92,165l-98.74,98.72a58.31,58.31,0,0,0-16.68-4.58,57.79,57.79,0,0,0-4.21-15.88l21.57-21.57L125,212.84,105.88,232a59.47,59.47,0,0,0-6.34-7.38A58.06,58.06,0,1,0,52,323.7a58.06,58.06,0,1,0,92.36-53.39l43.85-43.85L201.78,240l8.86-8.86-13.59-13.59,20.73-20.67,46.4,46.4A57.63,57.63,0,0,0,260,259.14a57.63,57.63,0,0,0-16.7,4.58l-21.37-21.35L213,251.23l19,19a59,59,0,0,0-6.69,5.84,58.06,58.06,0,1,0,99.07,47.54,58.06,58.06,0,1,0-47.91-98.7ZM141.84,284.61a45.53,45.53,0,1,1-64.39,0l-8.86-8.86A57.52,57.52,0,0,0,51.87,311a45.52,45.52,0,1,1,38.91-77.48,101,101,0,0,1,7,8.71,45.14,45.14,0,0,1,6.13,16.8c-1.63.16-3.27.39-4.9.7L101.24,272a45.58,45.58,0,0,1,32.24,6S139.84,282.61,141.84,284.61ZM349.78,298.2a45.59,45.59,0,0,1-64.39,0l-8.86,8.86a57.66,57.66,0,0,0,35.25,16.72,45.52,45.52,0,1,1-52-52c.17,1.64.39,3.27.7,4.9l12.32-2.3a45.53,45.53,0,1,1,77,23.82Z"/><path class="cls-1" d="M108.43,341.62l-1,12.49q1.48.12,3,.12a37.39,37.39,0,0,0,17.1-4.14L121.78,339A24.91,24.91,0,0,1,108.43,341.62Z"/><path class="cls-1" d="M127.94,334.43l8.86,8.86a37.38,37.38,0,0,0,0-52.81l-8.86,8.86A24.83,24.83,0,0,1,127.94,334.43Z"/><path class="cls-1" d="M268.78,33.34l1-12.49a37.31,37.31,0,0,0-20.07,4L255.41,36A24.69,24.69,0,0,1,268.78,33.34Z"/><path class="cls-1" d="M249.23,75.62a24.82,24.82,0,0,1,0-35.09h0l-8.86-8.86a37.34,37.34,0,0,0,0,52.81h0Z"/><rect class="cls-1" x="166.71" y="192.21" width="20.88" height="12.53" transform="translate(-88.46 183.4) rotate(-45)"/><path class="cls-1" d="M61.72,146.1l-.94-12.49a24.86,24.86,0,0,1-13.34-2.67L41.7,142.07a37.29,37.29,0,0,0,17.08,4.15Q60.24,146.22,61.72,146.1Z"/><path class="cls-1" d="M41.22,126.42a24.82,24.82,0,0,1,0-35.09h0l-8.86-8.86a37.34,37.34,0,0,0,0,52.81h0Z"/><path class="cls-1" d="M342.31,268l12.47,1a37.46,37.46,0,0,0-4-20l-11.14,5.75A24.92,24.92,0,0,1,342.31,268Z"/><path class="cls-1" d="M291.17,239.68l8.86,8.86a24.85,24.85,0,0,1,35.09,0l8.86-8.86A37.38,37.38,0,0,0,291.17,239.68Z"/></svg>