<svg id="Layer_1" data-name="Layer 1" xmlns="http://www.w3.org/2000/svg" viewBox="0 0 374.86 374.86"><defs><style>.cls-1{fill:#e0e0e2;}.cls-2{fill:#acabb1;}.cls-3{fill:#fff;}</style></defs><path class="cls-1" d="M357.85,224.94a58.05,58.05,0,0,1-34.19,98.7,58,58,0,1,1-92.39-53.38l-19-19,.17-.17-25-24.64-43.85,43.85a58.05,58.05,0,1,1-75.77,87.58,57.63,57.63,0,0,1-16.59-34.19,58.07,58.07,0,1,1,47.53-99.08,58.79,58.79,0,0,1,6.34,7.37l19.13-19.12h0L149,188l-44.44-44.44A58.06,58.06,0,1,1,17,67.81,57.6,57.6,0,0,1,51.2,51.22a58.08,58.08,0,1,1,91.7,53.87l32.83,32.21-.31.31,12,12L232,105.09a57.43,57.43,0,0,1-7-6,58.06,58.06,0,1,1,98.7-47.92,58.07,58.07,0,1,1-47.53,99.08,58.5,58.5,0,0,1-5.85-6.69L225.82,188,269.76,232a58.08,58.08,0,0,1,88.09-7Z"/><path class="cls-2" d="M175.42,137.61l12,12h0L149,188l-44.44-44.44A58.06,58.06,0,1,1,17,67.81,57.6,57.6,0,0,1,51.2,51.22a58.08,58.08,0,1,1,91.7,53.87l32.83,32.21Z"/><path class="cls-2" d="M357.85,307.05a57.63,57.63,0,0,1-34.19,16.59,58,58,0,1,1-92.39-53.38l-19-19,.17-.17-24.8-24.46L226,188.21,269.76,232a58.06,58.06,0,1,1,88.09,75.09Z"/><path d="M58.06,166.9a57.82,57.82,0,0,0,46.53-23.32L149,188l-13,13,8.86,8.87,98.39-98.39a59,59,0,0,0,8.38,2.83l-66.12,66.13,8.86,8.86,66.11-66.11a57.31,57.31,0,0,0,3.19,9.21l-21.35,21.35,8.87,8.86,19-19a59.4,59.4,0,0,0,5.84,6.69A58.06,58.06,0,1,0,323.64,51.2a58.06,58.06,0,1,0-98.7,47.92,58.32,58.32,0,0,0,7,6l-44.53,44.53L173.84,136,165,144.9l13.59,13.58-20.68,20.68L111.13,132.4a56.79,56.79,0,0,0,3.19-9.22l39,39,8.86-8.86-39-39a55.63,55.63,0,0,0,8.4-2.82l21.58,21.57,8.86-8.86L142.9,105.1a59,59,0,0,0,7.38-6.35A58.06,58.06,0,1,0,51.2,51.22,58,58,0,0,0,58.06,166.9Zm175.74-141a45.53,45.53,0,0,1,64.39,64.39l8.86,8.86a57.69,57.69,0,0,0,16.72-35.25,45.53,45.53,0,1,1-52,52c1.64-.16,3.27-.39,4.9-.69l-2.3-12.32a45.53,45.53,0,0,1-40.6-76.94ZM25.87,76.67a45.59,45.59,0,0,1,64.39,0l8.86-8.86A57.69,57.69,0,0,0,63.87,51.09,45.53,45.53,0,1,1,141.34,90a100.07,100.07,0,0,1-8.72,7,45,45,0,0,1-16.79,6.13c-.17-1.63-.4-3.26-.7-4.9l-12.32,2.31a45.59,45.59,0,0,1-6,32.24s-4.59,6.36-6.59,8.36A45.53,45.53,0,0,1,25.87,76.67Z"/><path d="M275.74,224.94a57.42,57.42,0,0,0-6,7L225.83,188,240,173.84,231.14,165,132.4,263.72a58.37,58.37,0,0,0-16.68-4.58,57.49,57.49,0,0,0-4.21-15.88l21.57-21.57-8.86-8.86L105.1,232a59,59,0,0,0-6.34-7.38,58.06,58.06,0,1,0-47.54,99.07,58.06,58.06,0,1,0,92.36-53.39l43.85-43.85L201,240l8.86-8.86-13.59-13.59L217,196.88l46.4,46.4a58,58,0,0,0-4.23,15.85,57.65,57.65,0,0,0-16.7,4.58L221.1,242.36l-8.86,8.86,19,19a59.4,59.4,0,0,0-6.69,5.84,58.06,58.06,0,1,0,99.07,47.54,58.06,58.06,0,1,0-47.91-98.7ZM141.06,284.6a45.53,45.53,0,1,1-64.39,0l-8.86-8.86A57.56,57.56,0,0,0,51.09,311,45.52,45.52,0,1,1,90,233.52a98.84,98.84,0,0,1,7,8.71,45.06,45.06,0,0,1,6.13,16.8c-1.63.16-3.27.39-4.9.7L100.46,272a45.59,45.59,0,0,1,32.24,6S139.06,282.6,141.06,284.6ZM349,298.19a45.59,45.59,0,0,1-64.39,0l-8.86,8.86A57.66,57.66,0,0,0,311,323.77a45.52,45.52,0,1,1-52-52c.17,1.64.39,3.27.7,4.9l12.32-2.3A45.53,45.53,0,1,1,349,298.19Z"/><path class="cls-3" d="M107.65,341.61l-1,12.49q1.49.12,3,.12a37.33,37.33,0,0,0,17.1-4.14L121,338.94A24.86,24.86,0,0,1,107.65,341.61Z"/><path class="cls-3" d="M127.16,334.42l8.86,8.86a37.38,37.38,0,0,0,0-52.81l-8.86,8.86A24.83,24.83,0,0,1,127.16,334.42Z"/><path class="cls-3" d="M268,33.33l1-12.49a37.35,37.35,0,0,0-20.07,4L254.63,36A24.75,24.75,0,0,1,268,33.33Z"/><path class="cls-3" d="M248.45,75.61a24.81,24.81,0,0,1,0-35.09l-8.86-8.86a37.34,37.34,0,0,0,0,52.81Z"/><rect x="165.94" y="192.2" width="20.88" height="12.53" transform="translate(-88.68 182.85) rotate(-45)"/><path class="cls-3" d="M60.94,146.09,60,133.6a24.81,24.81,0,0,1-13.34-2.67l-5.74,11.13A37.27,37.27,0,0,0,58,146.21Q59.46,146.21,60.94,146.09Z"/><path class="cls-3" d="M40.44,126.41a24.81,24.81,0,0,1,0-35.09l-8.86-8.86a37.34,37.34,0,0,0,0,52.81Z"/><path class="cls-3" d="M341.53,268,354,269A37.38,37.38,0,0,0,350,249l-11.14,5.75A24.86,24.86,0,0,1,341.53,268Z"/><path class="cls-3" d="M290.39,239.67l8.86,8.86a24.85,24.85,0,0,1,35.09,0l8.86-8.86A37.38,37.38,0,0,0,290.39,239.67Z"/></svg>