<svg id="Layer_1" data-name="Layer 1" xmlns="http://www.w3.org/2000/svg" viewBox="0 0 375.58 374.94"><path d="M58.82,166.92a57.83,57.83,0,0,0,46.53-23.32L149.76,188l-13,13,8.86,8.87L244,111.5a57.75,57.75,0,0,0,8.38,2.83l-66.12,66.13,8.86,8.86,66.11-66.11a56.35,56.35,0,0,0,3.19,9.21l-21.32,21.35,8.87,8.86,19-19a57.23,57.23,0,0,0,5.84,6.69,58.06,58.06,0,1,0,47.61-99.1,58,58,0,1,0-91.7,53.92l-44.53,44.53L174.6,136l-8.84,8.9,13.59,13.58-20.68,20.68-46.78-46.76a57.42,57.42,0,0,0,3.19-9.22l39,39,8.86-8.86-39-39a55.26,55.26,0,0,0,8.4-2.82l21.58,21.57,8.86-8.86-19.12-19.11A59.43,59.43,0,0,0,151,98.76,58.06,58.06,0,1,0,52,51.24a58,58,0,0,0,6.86,115.68Zm175.74-141A45.54,45.54,0,0,1,299,90.31l8.86,8.86a57.66,57.66,0,0,0,16.72-35.25,45.53,45.53,0,1,1-52,52c1.64-.16,3.27-.39,4.9-.69l-2.3-12.32A45.53,45.53,0,0,1,234.53,26ZM26.63,76.69a45.6,45.6,0,0,1,64.39,0l8.86-8.86A57.74,57.74,0,0,0,64.63,51.11,45.53,45.53,0,1,1,142.1,90a102.72,102.72,0,0,1-8.72,7,44.92,44.92,0,0,1-16.79,6.13c-.17-1.63-.4-3.26-.7-4.9l-12.32,2.31a45.58,45.58,0,0,1-6,32.24S93,139.16,91,141.16A45.54,45.54,0,1,1,26.63,76.69Z"/><path d="M276.5,225a57.13,57.13,0,0,0-6,7l-43.91-44,14.17-14.16L231.9,165l-98.74,98.72a58.64,58.64,0,0,0-16.68-4.58,58,58,0,0,0-4.21-15.88l21.57-21.57L125,212.85,105.86,232a61,61,0,0,0-6.34-7.38A58.06,58.06,0,1,0,52,323.71a58.06,58.06,0,1,0,92.36-53.39l43.85-43.85L201.76,240l8.86-8.86L197,217.56l20.73-20.67,46.4,46.4A57.88,57.88,0,0,0,260,259.15a57.94,57.94,0,0,0-16.7,4.58l-21.37-21.35L213,251.24l19,19a59,59,0,0,0-6.69,5.84,58.06,58.06,0,1,0,99.07,47.54,58.06,58.06,0,1,0-47.91-98.7ZM141.82,284.62a45.53,45.53,0,1,1-64.39,0l-8.86-8.86A57.52,57.52,0,0,0,51.85,311a45.52,45.52,0,1,1,38.91-77.48,102.58,102.58,0,0,1,7,8.71,45.38,45.38,0,0,1,6.13,16.8c-1.63.16-3.27.39-4.9.7L101.22,272a45.63,45.63,0,0,1,32.24,6S139.82,282.62,141.82,284.62Zm207.94,13.59a45.59,45.59,0,0,1-64.39,0l-8.86,8.86a57.61,57.61,0,0,0,35.25,16.72,45.52,45.52,0,1,1-52-52c.17,1.64.39,3.27.7,4.9l12.32-2.3a45.53,45.53,0,1,1,77,23.82Z"/><path d="M108.41,341.63l-1,12.49q1.47.12,3,.12a37.26,37.26,0,0,0,17.1-4.14L121.76,339A24.81,24.81,0,0,1,108.41,341.63Z"/><path d="M127.92,334.44l8.86,8.86a37.38,37.38,0,0,0,0-52.81l-8.86,8.86A24.83,24.83,0,0,1,127.92,334.44Z"/><path d="M268.76,33.35l1-12.49a37.41,37.41,0,0,0-20.07,4L255.39,36A24.77,24.77,0,0,1,268.76,33.35Z"/><path d="M249.21,75.63a24.81,24.81,0,0,1,0-35.09h0l-8.86-8.86a37.34,37.34,0,0,0,0,52.81h0Z"/><rect x="166.68" y="192.23" width="20.88" height="12.53" transform="translate(-88.48 183.38) rotate(-45)"/><path d="M61.7,146.11l-.94-12.49A24.77,24.77,0,0,1,47.42,131l-5.74,11.13a37.16,37.16,0,0,0,17.08,4.15Q60.22,146.23,61.7,146.11Z"/><path d="M41.2,126.43a24.81,24.81,0,0,1,0-35.09h0l-8.86-8.86a37.34,37.34,0,0,0,0,52.81h0Z"/><path d="M342.29,268l12.47,1a37.57,37.57,0,0,0-4-20l-11.14,5.75A25,25,0,0,1,342.29,268Z"/><path d="M291.15,239.69l8.86,8.86a24.87,24.87,0,0,1,35.09,0l8.86-8.86A37.38,37.38,0,0,0,291.15,239.69Z"/></svg>