<svg id="Layer_1" data-name="Layer 1" xmlns="http://www.w3.org/2000/svg" viewBox="0 0 157.5 32.01"><defs><style>.cls-1{fill:none;stroke:#000;stroke-miterlimit:10;}</style></defs><path class="cls-1" d="M47.73,22.2h-4.2v6.5a2.83,2.83,0,0,1-.71,2.1,2.19,2.19,0,0,1-1.7.7,2,2,0,0,1-1.7-.7,3.27,3.27,0,0,1-.6-2.1V11.1a2.82,2.82,0,0,1,.71-2.2,3.42,3.42,0,0,1,2.2-.7h6a14.8,14.8,0,0,1,4.09.4,7,7,0,0,1,2.41,1.3,5.79,5.79,0,0,1,1.59,2.2,7.16,7.16,0,0,1,.5,3,6.37,6.37,0,0,1-2.2,5.3A9.91,9.91,0,0,1,47.73,22.2Z"/><path class="cls-1" d="M66.83,29.1a12.2,12.2,0,0,1-3,1.8,8.34,8.34,0,0,1-3.2.6,6.59,6.59,0,0,1-2.9-.6,4.21,4.21,0,0,1-1.91-1.8,4.82,4.82,0,0,1-.7-2.4,4.52,4.52,0,0,1,1.1-3,6,6,0,0,1,3-1.7c.3-.1.9-.2,2-.4s2-.4,2.8-.6,1.6-.4,2.51-.7a5,5,0,0,0-.7-2.5,3.1,3.1,0,0,0-2.5-.8,4.74,4.74,0,0,0-2.4.5,4.67,4.67,0,0,0-1.4,1.4c-.41.6-.71,1-.8,1.2a1.34,1.34,0,0,1-1,.3,1.64,1.64,0,0,1-1.2-.5,1.7,1.7,0,0,1-.5-1.2,3.74,3.74,0,0,1,.79-2.2,6.23,6.23,0,0,1,2.5-1.8,10.26,10.26,0,0,1,4.21-.7,10.65,10.65,0,0,1,4.4.7,4,4,0,0,1,2.3,2.1,9.89,9.89,0,0,1,.7,3.8v4.8a7.61,7.61,0,0,0,.4,2.5,6.2,6.2,0,0,1,.4,1.7,1.74,1.74,0,0,1-.6,1.2,1.9,1.9,0,0,1-1.4.5,2,2,0,0,1-1.3-.6A3.45,3.45,0,0,1,66.83,29.1Z"/><path class="cls-1" d="M87.83,26.2a4,4,0,0,1-.5,1.7,4.72,4.72,0,0,1-1.5,1.7,8.39,8.39,0,0,1-2.5,1.3,11.19,11.19,0,0,1-3.3.5,8.44,8.44,0,0,1-6.2-2.3,8.38,8.38,0,0,1-2.2-6.2,9.4,9.4,0,0,1,1-4.6,7.94,7.94,0,0,1,2.9-3.1,9.79,9.79,0,0,1,7.6-.6,7.23,7.23,0,0,1,2.3,1.2,11.37,11.37,0,0,1,1.5,1.6,3.66,3.66,0,0,1,.5,1.6,1.75,1.75,0,0,1-.6,1.3,1.74,1.74,0,0,1-1.4.5,1.4,1.4,0,0,1-.9-.3,7.57,7.57,0,0,1-.8-.9,7.42,7.42,0,0,0-1.6-1.8,3.79,3.79,0,0,0-2.2-.6,3.44,3.44,0,0,0-3,1.5,6.17,6.17,0,0,0-1.2,4,7.84,7.84,0,0,0,.3,2.2,4.65,4.65,0,0,0,.9,1.7,3.77,3.77,0,0,0,1.4,1.1,4.86,4.86,0,0,0,1.8.4,3.79,3.79,0,0,0,2.2-.6,5.63,5.63,0,0,0,1.6-1.8,3.35,3.35,0,0,1,.8-1.1,1.49,1.49,0,0,1,1.1-.4,1.64,1.64,0,0,1,1.3.6A2.3,2.3,0,0,1,87.83,26.2Z"/><path class="cls-1" d="M92.12,8.2h6a15.36,15.36,0,0,1,4,.4,8.34,8.34,0,0,1,3.1,1.6q3.6,3,3.6,9.3a15.15,15.15,0,0,1-.4,3.8,10.34,10.34,0,0,1-1.1,3.1,8.69,8.69,0,0,1-1.9,2.4,6.27,6.27,0,0,1-2,1.3,8.38,8.38,0,0,1-2.4.7,23.81,23.81,0,0,1-2.8.2h-6a3.31,3.31,0,0,1-1.9-.4,1.79,1.79,0,0,1-.8-1.1,9,9,0,0,1-.2-1.8V11.1A2.93,2.93,0,0,1,90,8.9,2.55,2.55,0,0,1,92.12,8.2Z"/><path class="cls-1" d="M126.12,22.8a9.72,9.72,0,0,1-.59,3.5,9,9,0,0,1-1.7,2.8,7,7,0,0,1-2.7,1.8,10.51,10.51,0,0,1-7,0,8,8,0,0,1-2.7-1.8,7.33,7.33,0,0,1-1.7-2.8,10,10,0,0,1-.6-3.5,9.52,9.52,0,0,1,.6-3.5,8.84,8.84,0,0,1,1.7-2.8,7.58,7.58,0,0,1,2.7-1.8,10,10,0,0,1,3.5-.6,9.52,9.52,0,0,1,3.5.6,6.43,6.43,0,0,1,2.7,1.8,7.33,7.33,0,0,1,1.7,2.8A10.72,10.72,0,0,1,126.12,22.8Z"/><path class="cls-1" d="M142.22,26.2a3.9,3.9,0,0,1-.5,1.7,4.72,4.72,0,0,1-1.5,1.7,8.39,8.39,0,0,1-2.5,1.3,11.19,11.19,0,0,1-3.3.5,8.44,8.44,0,0,1-6.2-2.3A8.44,8.44,0,0,1,126,22.9a9.4,9.4,0,0,1,1-4.6,7.84,7.84,0,0,1,2.89-3.1,9.82,9.82,0,0,1,7.61-.6,7.43,7.43,0,0,1,2.3,1.2,11.37,11.37,0,0,1,1.5,1.6,3.66,3.66,0,0,1,.5,1.6,1.9,1.9,0,0,1-2,1.8h0a1.4,1.4,0,0,1-.9-.3,7.57,7.57,0,0,1-.8-.9,7.42,7.42,0,0,0-1.6-1.8,3.81,3.81,0,0,0-2.2-.6,3.44,3.44,0,0,0-3,1.5,6.17,6.17,0,0,0-1.2,4,7.84,7.84,0,0,0,.3,2.2,4.65,4.65,0,0,0,.9,1.7,3.82,3.82,0,0,0,1.39,1.1,4.91,4.91,0,0,0,1.81.4,3.78,3.78,0,0,0,2.19-.6,5.67,5.67,0,0,0,1.61-1.8,3.35,3.35,0,0,1,.8-1.1,1.49,1.49,0,0,1,1.1-.4,1.64,1.64,0,0,1,1.3.6A2.22,2.22,0,0,1,142.22,26.2Z"/><path class="cls-1" d="M157,25.9a5,5,0,0,1-.9,3,5.4,5.4,0,0,1-2.5,1.9,12.39,12.39,0,0,1-4.1.6,9.33,9.33,0,0,1-3.9-.7,5.84,5.84,0,0,1-2.4-1.8,3.66,3.66,0,0,1-.8-2.1,1.7,1.7,0,0,1,.5-1.2,1.89,1.89,0,0,1,1.3-.5,1.5,1.5,0,0,1,1,.3,3.41,3.41,0,0,1,.7.9,4.3,4.3,0,0,0,4.1,2.3,3.27,3.27,0,0,0,2.1-.6,1.69,1.69,0,0,0,.8-1.3,1.59,1.59,0,0,0-.9-1.6,12.15,12.15,0,0,0-2.8-1,26.69,26.69,0,0,1-3.6-1.1,5.23,5.23,0,0,1-2.2-1.6,3.49,3.49,0,0,1-.8-2.4,4.14,4.14,0,0,1,.8-2.4,4.66,4.66,0,0,1,2.3-1.8,8,8,0,0,1,3.6-.7,13.76,13.76,0,0,1,3,.3,6.32,6.32,0,0,1,2.2.9,4,4,0,0,1,1.3,1.3,2.64,2.64,0,0,1,.5,1.4,1.7,1.7,0,0,1-.5,1.2,2,2,0,0,1-1.4.5,1.49,1.49,0,0,1-1.1-.4,5.21,5.21,0,0,1-1.1-1.1,3.51,3.51,0,0,0-1.1-1,4,4,0,0,0-1.8-.4,3.6,3.6,0,0,0-1.9.5,1.3,1.3,0,0,0-.2,2.3,5.26,5.26,0,0,0,1.5.7c.6.2,1.5.4,2.6.7a10.87,10.87,0,0,1,3.2,1.2,5.08,5.08,0,0,1,1.9,1.6A4.19,4.19,0,0,1,157,25.9Z"/><path d="M23.53,19.2a2.22,2.22,0,0,0-.5.6l-3.71-3.7,1.21-1.2-.8-.8-8.4,8.4a7.47,7.47,0,0,0-1.4-.4,7.47,7.47,0,0,0-.4-1.4l1.8-1.8-.8-.8L9,19.8c-.2-.2-.3-.4-.5-.6A5,5,0,0,0,5,17.8a4.87,4.87,0,0,0-5,4.74v.16a5.18,5.18,0,0,0,1.4,3.5,4.71,4.71,0,0,0,2.9,1.4,4.83,4.83,0,0,0,4.9,4.3,5.18,5.18,0,0,0,3.5-1.4,5,5,0,0,0,0-7c-.2-.2-.4-.3-.5-.5l3.7-3.7,1.2,1.2.79-.8-1.2-1.2,1.8-1.8,4,4a5.74,5.74,0,0,0-.4,1.4,5.74,5.74,0,0,0-1.4.4l-1.8-1.8-.79.8,1.6,1.6c-.2.2-.4.3-.6.5a5,5,0,0,0-1.4,3.5A4.92,4.92,0,0,0,22.6,32a5.18,5.18,0,0,0,3.5-1.4,4.79,4.79,0,0,0,1.4-2.9,4.64,4.64,0,0,0,2.89-1.4,5,5,0,0,0,0-7,4.8,4.8,0,0,0-6.77-.19ZM12,24.3a3.89,3.89,0,0,1-5.5,5.5,3.92,3.92,0,0,1,0-5.5l-.8-.8a4.81,4.81,0,0,0-1.4,3A3.82,3.82,0,0,1,1,22.7a3.91,3.91,0,0,1,3.9-3.9,3.84,3.84,0,0,1,2.7,1.1c.2.2.6.7.6.7A3.32,3.32,0,0,1,8.7,22c-.11,0-.31,0-.4.1l.2,1a3.57,3.57,0,0,1,2.7.5A5.35,5.35,0,0,1,12,24.3Zm17.7,1.1a3.92,3.92,0,0,1-5.5,0l-.8.8a5,5,0,0,0,3,1.4,3.82,3.82,0,0,1-3.8,3.3A3.91,3.91,0,0,1,18.7,27,3.82,3.82,0,0,1,22,23.2a.63.63,0,0,0,.1.4l1-.2a4.07,4.07,0,0,1,1.1-3.5,3.92,3.92,0,0,1,5.5,0,3.77,3.77,0,0,1,.2,5.33c0,.06-.11.11-.17.17Z"/><path d="M9.23,29.1l-.11,1.1h.3a2.81,2.81,0,0,0,1.5-.4l-.5-.9A1.7,1.7,0,0,1,9.23,29.1Z"/><path d="M10.83,28.5l.8.8a3.26,3.26,0,0,0,0-4.5l-.8.8a1.89,1.89,0,0,1,.24,2.66A1.36,1.36,0,0,1,10.83,28.5Z"/><path d="M22.82,2.9l.1-1.1a4.69,4.69,0,0,0-1.7.3l.51.9A2,2,0,0,1,22.82,2.9Z"/><path d="M21.23,6.5a2,2,0,0,1-.6-1.5,2,2,0,0,1,.6-1.5l-.8-.8a3.14,3.14,0,0,0,0,4.4Z"/><rect x="14.11" y="16.43" width="1.8" height="1.1" transform="translate(-7.61 15.59) rotate(-45)"/><path d="M5.23,12.5l-.1-1.1A1.92,1.92,0,0,1,4,11.2l-.5.9a4.13,4.13,0,0,0,1.5.4Z"/><path d="M3.53,10.8a2,2,0,0,1-.6-1.5,2,2,0,0,1,.6-1.5l-.8-.7a3.14,3.14,0,0,0,0,4.4Z"/><path d="M29.13,22.9l1.1.1a4.69,4.69,0,0,0-.3-1.7l-.9.5A3.7,3.7,0,0,1,29.13,22.9Z"/><path d="M24.82,20.5l.8.8a2.17,2.17,0,0,1,3,0l.8-.8a3.2,3.2,0,0,0-4.52-.08A.6.6,0,0,0,24.82,20.5Z"/><path d="M5,14.2a5.18,5.18,0,0,0,3.5-1.4c.2-.2.3-.4.5-.5l3.8,3.8-1.1,1.1.8.8,8.39-8.4a1.93,1.93,0,0,0,.71.2L16,15.4l.79.8,5.6-5.6c.11.3.21.5.3.8l-1.8,1.8.8.8,1.6-1.6c.21.2.3.4.5.6a5,5,0,0,0,8.5-3.6,5.18,5.18,0,0,0-1.4-3.5,4.62,4.62,0,0,0-3-1.4A4.7,4.7,0,0,0,26.5,1.6a5,5,0,0,0-7,0,5,5,0,0,0,0,7,2.22,2.22,0,0,0,.6.5L16,12.8l-1.2-1.2-.8.8,1.2,1.2-1.81,1.8-4-4c.11-.3.2-.5.31-.8L13,13.9l.8-.8L10.5,9.8c.2-.1.5-.1.7-.2L13,11.4l.8-.8L12.23,9c.19-.2.39-.3.6-.5A5,5,0,0,0,9.23,0a4.71,4.71,0,0,0-3.3,1.4,4.74,4.74,0,0,0-1.4,3,4.74,4.74,0,0,0-3,1.4,5,5,0,0,0,0,7A4.75,4.75,0,0,0,5,14.2Zm15-12a3.89,3.89,0,0,1,5.5,5.5l.79.8a5,5,0,0,0,1.4-3A3.83,3.83,0,0,1,31,9.3a3.91,3.91,0,0,1-3.9,3.9,4,4,0,0,1-2.71-1.1,3.86,3.86,0,0,1-1.1-2.2.58.58,0,0,0,.4-.1l-.2-1.1A3.7,3.7,0,0,1,20,7.7,3.92,3.92,0,0,1,20,2.2ZM2.33,6.5a3.92,3.92,0,0,1,5.5,0l.8-.8a6,6,0,0,0-3.1-1.3,3.63,3.63,0,0,1,1.1-2.2,3.84,3.84,0,0,1,2.7-1.1A3.92,3.92,0,0,1,13.23,5a3.84,3.84,0,0,1-1.1,2.7c-.2.2-.7.6-.7.6a3.32,3.32,0,0,1-1.4.5.58.58,0,0,0-.1-.4l-1.1.2a4,4,0,0,1-.5,2.8s-.4.5-.6.7a3.92,3.92,0,0,1-5.5,0A4,4,0,0,1,2.33,6.5Z"/></svg>