<?xml version="1.0" encoding="utf-8"?>
<!-- Generator: Adobe Illustrator 26.2.1, SVG Export Plug-In . SVG Version: 6.00 Build 0)  -->
<svg version="1.1" id="Layer_1" xmlns="http://www.w3.org/2000/svg" xmlns:xlink="http://www.w3.org/1999/xlink" x="0px" y="0px"
	 viewBox="0 0 161.8 32" style="enable-background:new 0 0 161.8 32;" xml:space="preserve">
<style type="text/css">
	.st0{fill:none;stroke:#999999;stroke-width:2;stroke-miterlimit:10;}
	.st1{fill:none;stroke:#000000;stroke-miterlimit:10;}
	.st2{fill:#E0E0E2;}
	.st3{fill:#ACABB1;}
	.st4{fill:#FFFFFF;}
</style>
<g>
	<path class="st0" d="M51.1,18.3h-4.2v6.5c0,0.9-0.2,1.6-0.7,2.1s-1,0.7-1.7,0.7s-1.3-0.2-1.7-0.7s-0.6-1.2-0.6-2.1V7.1
		c0-1,0.2-1.8,0.7-2.2s1.2-0.7,2.2-0.7h6c1.8,0,3.1,0.1,4.1,0.4C56.1,5,56.9,5.4,57.6,6c0.7,0.6,1.2,1.3,1.6,2.2
		c0.4,0.9,0.5,1.9,0.5,3c0,2.3-0.7,4.1-2.2,5.3S53.9,18.3,51.1,18.3z"/>
	<path class="st0" d="M70.3,25.2c-1,0.8-2,1.4-3,1.8s-2,0.6-3.2,0.6c-1.1,0-2.1-0.2-2.9-0.6s-1.5-1-1.9-1.8
		c-0.4-0.7-0.7-1.5-0.7-2.4c0-1.2,0.4-2.2,1.1-3c0.7-0.8,1.8-1.4,3-1.7c0.3-0.1,0.9-0.2,2-0.4c1.1-0.2,2-0.4,2.8-0.6
		s1.6-0.4,2.5-0.7c-0.1-1.1-0.3-2-0.7-2.5c-0.4-0.5-1.2-0.8-2.5-0.8c-1.1,0-1.9,0.2-2.4,0.5s-1,0.8-1.4,1.4c-0.4,0.6-0.7,1-0.8,1.2
		c-0.2,0.2-0.5,0.3-1,0.3S60.3,16.3,60,16c-0.3-0.3-0.5-0.7-0.5-1.2c0-0.8,0.3-1.5,0.8-2.2s1.4-1.3,2.5-1.8s2.5-0.7,4.2-0.7
		c1.9,0,3.3,0.2,4.4,0.7c1.1,0.4,1.8,1.1,2.3,2.1c0.4,1,0.7,2.2,0.7,3.8c0,1,0,1.8,0,2.5s0,1.5,0,2.3s0.1,1.6,0.4,2.5
		s0.4,1.4,0.4,1.7c0,0.4-0.2,0.8-0.6,1.2c-0.4,0.4-0.9,0.5-1.4,0.5c-0.4,0-0.9-0.2-1.3-0.6C71.2,26.6,70.7,26,70.3,25.2z"/>
	<path class="st0" d="M91.2,22.3c0,0.5-0.2,1.1-0.5,1.7s-0.8,1.2-1.5,1.7s-1.5,1-2.5,1.3s-2.1,0.5-3.3,0.5c-2.6,0-4.7-0.8-6.2-2.3
		S75,21.6,75,19c0-1.8,0.3-3.3,1-4.6s1.7-2.4,2.9-3.1s2.8-1.1,4.6-1.1c1.1,0,2.1,0.2,3,0.5s1.7,0.7,2.3,1.2c0.6,0.5,1.1,1.1,1.5,1.6
		c0.3,0.6,0.5,1.1,0.5,1.6s-0.2,0.9-0.6,1.3c-0.4,0.4-0.8,0.5-1.4,0.5c-0.4,0-0.6-0.1-0.9-0.3c-0.2-0.2-0.5-0.5-0.8-0.9
		c-0.5-0.8-1.1-1.4-1.6-1.8c-0.6-0.4-1.3-0.6-2.2-0.6c-1.3,0-2.3,0.5-3,1.5c-0.8,1-1.2,2.3-1.2,4c0,0.8,0.1,1.5,0.3,2.2
		c0.2,0.7,0.5,1.2,0.9,1.7s0.8,0.8,1.4,1.1c0.5,0.2,1.1,0.4,1.8,0.4c0.9,0,1.6-0.2,2.2-0.6s1.1-1,1.6-1.8c0.3-0.5,0.5-0.9,0.8-1.1
		c0.3-0.3,0.7-0.4,1.1-0.4c0.5,0,1,0.2,1.3,0.6C91.1,21.4,91.2,21.9,91.2,22.3z"/>
	<path class="st0" d="M95.6,4.3h6c1.6,0,2.9,0.1,4,0.4s2.1,0.8,3.1,1.6c2.4,2,3.6,5.1,3.6,9.3c0,1.4-0.1,2.6-0.4,3.8
		c-0.2,1.1-0.6,2.2-1.1,3.1s-1.1,1.7-1.9,2.4c-0.6,0.6-1.3,1-2,1.3s-1.5,0.6-2.4,0.7c-0.8,0.1-1.8,0.2-2.8,0.2h-6
		c-0.8,0-1.5-0.1-1.9-0.4s-0.7-0.6-0.8-1.1c-0.1-0.5-0.2-1.1-0.2-1.8V7.1c0-1,0.2-1.7,0.7-2.2C93.8,4.5,94.6,4.3,95.6,4.3z"/>
	<path class="st0" d="M129.5,18.9c0,1.3-0.2,2.4-0.6,3.5c-0.4,1.1-1,2-1.7,2.8c-0.8,0.8-1.6,1.4-2.7,1.8c-1,0.4-2.2,0.6-3.5,0.6
		s-2.5-0.2-3.5-0.6s-1.9-1-2.7-1.8c-0.8-0.8-1.3-1.7-1.7-2.8c-0.4-1.1-0.6-2.2-0.6-3.5s0.2-2.5,0.6-3.5c0.4-1.1,1-2,1.7-2.8
		s1.6-1.3,2.7-1.8c1.1-0.4,2.2-0.6,3.5-0.6s2.5,0.2,3.5,0.6c1.1,0.4,2,1,2.7,1.8c0.8,0.8,1.3,1.7,1.7,2.8S129.5,17.6,129.5,18.9z"/>
	<path class="st0" d="M145.6,22.3c0,0.5-0.2,1.1-0.5,1.7s-0.8,1.2-1.5,1.7s-1.5,1-2.5,1.3s-2.1,0.5-3.3,0.5c-2.6,0-4.7-0.8-6.2-2.3
		s-2.2-3.6-2.2-6.2c0-1.8,0.3-3.3,1-4.6s1.7-2.4,2.9-3.1s2.8-1.1,4.6-1.1c1.1,0,2.1,0.2,3,0.5s1.7,0.7,2.3,1.2s1.1,1.1,1.5,1.6
		c0.3,0.6,0.5,1.1,0.5,1.6s-0.2,0.9-0.6,1.3c-0.4,0.4-0.8,0.5-1.4,0.5c-0.4,0-0.6-0.1-0.9-0.3c-0.2-0.2-0.5-0.5-0.8-0.9
		c-0.5-0.8-1.1-1.4-1.6-1.8c-0.6-0.4-1.3-0.6-2.2-0.6c-1.3,0-2.3,0.5-3,1.5c-0.8,1-1.2,2.3-1.2,4c0,0.8,0.1,1.5,0.3,2.2
		s0.5,1.2,0.9,1.7s0.8,0.8,1.4,1.1c0.5,0.2,1.1,0.4,1.8,0.4c0.9,0,1.6-0.2,2.2-0.6c0.6-0.4,1.1-1,1.6-1.8c0.3-0.5,0.5-0.9,0.8-1.1
		c0.3-0.3,0.7-0.4,1.1-0.4c0.5,0,1,0.2,1.3,0.6C145.4,21.4,145.6,21.9,145.6,22.3z"/>
	<path class="st0" d="M160.5,22c0,1.2-0.3,2.2-0.9,3c-0.6,0.8-1.4,1.5-2.5,1.9s-2.5,0.6-4.1,0.6c-1.5,0-2.8-0.2-3.9-0.7
		s-1.9-1.1-2.4-1.8c-0.5-0.7-0.8-1.4-0.8-2.1c0-0.5,0.2-0.9,0.5-1.2c0.3-0.3,0.8-0.5,1.3-0.5c0.4,0,0.8,0.1,1,0.3
		c0.2,0.2,0.5,0.5,0.7,0.9c0.4,0.8,1,1.3,1.6,1.7s1.4,0.6,2.5,0.6c0.9,0,1.6-0.2,2.1-0.6s0.8-0.8,0.8-1.3c0-0.8-0.3-1.3-0.9-1.6
		c-0.6-0.3-1.5-0.7-2.8-1c-1.5-0.4-2.7-0.7-3.6-1.1c-0.9-0.4-1.7-0.9-2.2-1.6c-0.6-0.7-0.8-1.5-0.8-2.4s0.3-1.7,0.8-2.4
		c0.5-0.8,1.3-1.4,2.3-1.8c1-0.5,2.2-0.7,3.6-0.7c1.1,0,2.1,0.1,3,0.3s1.6,0.5,2.2,0.9c0.6,0.4,1,0.8,1.3,1.3s0.5,0.9,0.5,1.4
		s-0.2,0.9-0.5,1.2s-0.8,0.5-1.4,0.5c-0.4,0-0.8-0.1-1.1-0.4c-0.3-0.2-0.7-0.6-1.1-1.1c-0.3-0.4-0.7-0.8-1.1-1s-1-0.4-1.8-0.4
		s-1.4,0.2-1.9,0.5s-0.8,0.7-0.8,1.2c0,0.4,0.2,0.8,0.6,1.1c0.4,0.3,0.9,0.5,1.5,0.7s1.5,0.4,2.6,0.7c1.3,0.3,2.4,0.7,3.2,1.2
		c0.8,0.4,1.5,1,1.9,1.6C160.3,20.5,160.5,21.2,160.5,22z"/>
</g>
<g>
	<path class="st1" d="M47.7,22.2h-4.2v6.5c0,0.9-0.2,1.6-0.7,2.1s-1,0.7-1.7,0.7s-1.3-0.2-1.7-0.7s-0.6-1.2-0.6-2.1V11.1
		c0-1,0.2-1.8,0.7-2.2s1.2-0.7,2.2-0.7h6c1.8,0,3.1,0.1,4.1,0.4c0.9,0.3,1.7,0.7,2.4,1.3s1.2,1.3,1.6,2.2c0.4,0.9,0.5,1.9,0.5,3
		c0,2.3-0.7,4.1-2.2,5.3S50.5,22.2,47.7,22.2z"/>
	<path class="st1" d="M66.8,29.1c-1,0.8-2,1.4-3,1.8s-2,0.6-3.2,0.6c-1.1,0-2.1-0.2-2.9-0.6s-1.5-1-1.9-1.8
		c-0.4-0.7-0.7-1.5-0.7-2.4c0-1.2,0.4-2.2,1.1-3c0.7-0.8,1.8-1.4,3-1.7c0.3-0.1,0.9-0.2,2-0.4c1.1-0.2,2-0.4,2.8-0.6
		s1.6-0.4,2.5-0.7c-0.1-1.1-0.3-2-0.7-2.5c-0.4-0.5-1.2-0.8-2.5-0.8c-1.1,0-1.9,0.2-2.4,0.5s-1,0.8-1.4,1.4s-0.7,1-0.8,1.2
		c-0.2,0.2-0.5,0.3-1,0.3s-0.9-0.2-1.2-0.5S56,19.2,56,18.7c0-0.8,0.3-1.5,0.8-2.2c0.5-0.7,1.4-1.3,2.5-1.8s2.5-0.7,4.2-0.7
		c1.9,0,3.3,0.2,4.4,0.7c1.1,0.4,1.8,1.1,2.3,2.1c0.4,1,0.7,2.2,0.7,3.8c0,1,0,1.8,0,2.5s0,1.5,0,2.3s0.1,1.6,0.4,2.5
		s0.4,1.4,0.4,1.7c0,0.4-0.2,0.8-0.6,1.2c-0.4,0.4-0.9,0.5-1.4,0.5c-0.4,0-0.9-0.2-1.3-0.6C67.8,30.5,67.3,29.9,66.8,29.1z"/>
	<path class="st1" d="M87.8,26.2c0,0.5-0.2,1.1-0.5,1.7s-0.8,1.2-1.5,1.7s-1.5,1-2.5,1.3s-2.1,0.5-3.3,0.5c-2.6,0-4.7-0.8-6.2-2.3
		s-2.2-3.6-2.2-6.2c0-1.8,0.3-3.3,1-4.6c0.7-1.3,1.7-2.4,2.9-3.1s2.8-1.1,4.6-1.1c1.1,0,2.1,0.2,3,0.5s1.7,0.7,2.3,1.2
		c0.6,0.5,1.1,1.1,1.5,1.6c0.3,0.6,0.5,1.1,0.5,1.6s-0.2,0.9-0.6,1.3s-0.8,0.5-1.4,0.5c-0.4,0-0.6-0.1-0.9-0.3
		c-0.2-0.2-0.5-0.5-0.8-0.9c-0.5-0.8-1.1-1.4-1.6-1.8c-0.6-0.4-1.3-0.6-2.2-0.6c-1.3,0-2.3,0.5-3,1.5c-0.8,1-1.2,2.3-1.2,4
		c0,0.8,0.1,1.5,0.3,2.2c0.2,0.7,0.5,1.2,0.9,1.7s0.8,0.8,1.4,1.1c0.5,0.2,1.1,0.4,1.8,0.4c0.9,0,1.6-0.2,2.2-0.6s1.1-1,1.6-1.8
		c0.3-0.5,0.5-0.9,0.8-1.1c0.3-0.3,0.7-0.4,1.1-0.4c0.5,0,1,0.2,1.3,0.6C87.6,25.4,87.8,25.8,87.8,26.2z"/>
	<path class="st1" d="M92.1,8.2h6c1.6,0,2.9,0.1,4,0.4c1.1,0.3,2.1,0.8,3.1,1.6c2.4,2,3.6,5.1,3.6,9.3c0,1.4-0.1,2.6-0.4,3.8
		c-0.2,1.1-0.6,2.2-1.1,3.1s-1.1,1.7-1.9,2.4c-0.6,0.6-1.3,1-2,1.3s-1.5,0.6-2.4,0.7c-0.8,0.1-1.8,0.2-2.8,0.2h-6
		c-0.8,0-1.5-0.1-1.9-0.4s-0.7-0.6-0.8-1.1c-0.1-0.5-0.2-1.1-0.2-1.8V11.1c0-1,0.2-1.7,0.7-2.2C90.4,8.4,91.1,8.2,92.1,8.2z"/>
	<path class="st1" d="M126.1,22.8c0,1.3-0.2,2.4-0.6,3.5s-1,2-1.7,2.8c-0.8,0.8-1.6,1.4-2.7,1.8c-1,0.4-2.2,0.6-3.5,0.6
		s-2.5-0.2-3.5-0.6s-1.9-1-2.7-1.8c-0.8-0.8-1.3-1.7-1.7-2.8c-0.4-1.1-0.6-2.2-0.6-3.5s0.2-2.5,0.6-3.5c0.4-1.1,1-2,1.7-2.8
		c0.7-0.8,1.6-1.3,2.7-1.8c1.1-0.4,2.2-0.6,3.5-0.6s2.5,0.2,3.5,0.6c1.1,0.4,2,1,2.7,1.8c0.8,0.8,1.3,1.7,1.7,2.8
		S126.1,21.6,126.1,22.8z"/>
	<path class="st1" d="M142.2,26.2c0,0.5-0.2,1.1-0.5,1.7s-0.8,1.2-1.5,1.7s-1.5,1-2.5,1.3s-2.1,0.5-3.3,0.5c-2.6,0-4.7-0.8-6.2-2.3
		s-2.2-3.6-2.2-6.2c0-1.8,0.3-3.3,1-4.6c0.7-1.3,1.7-2.4,2.9-3.1s2.8-1.1,4.6-1.1c1.1,0,2.1,0.2,3,0.5s1.7,0.7,2.3,1.2
		c0.6,0.5,1.1,1.1,1.5,1.6c0.3,0.6,0.5,1.1,0.5,1.6s-0.2,0.9-0.6,1.3c-0.4,0.4-0.8,0.5-1.4,0.5c-0.4,0-0.6-0.1-0.9-0.3
		c-0.2-0.2-0.5-0.5-0.8-0.9c-0.5-0.8-1.1-1.4-1.6-1.8c-0.6-0.4-1.3-0.6-2.2-0.6c-1.3,0-2.3,0.5-3,1.5c-0.8,1-1.2,2.3-1.2,4
		c0,0.8,0.1,1.5,0.3,2.2s0.5,1.2,0.9,1.7s0.8,0.8,1.4,1.1c0.5,0.2,1.1,0.4,1.8,0.4c0.9,0,1.6-0.2,2.2-0.6c0.6-0.4,1.1-1,1.6-1.8
		c0.3-0.5,0.5-0.9,0.8-1.1c0.3-0.3,0.7-0.4,1.1-0.4c0.5,0,1,0.2,1.3,0.6C142,25.4,142.2,25.8,142.2,26.2z"/>
	<path class="st1" d="M157,25.9c0,1.2-0.3,2.2-0.9,3c-0.6,0.8-1.4,1.5-2.5,1.9s-2.5,0.6-4.1,0.6c-1.5,0-2.8-0.2-3.9-0.7
		s-1.9-1.1-2.4-1.8c-0.5-0.7-0.8-1.4-0.8-2.1c0-0.5,0.2-0.9,0.5-1.2c0.3-0.3,0.8-0.5,1.3-0.5c0.4,0,0.8,0.1,1,0.3
		c0.2,0.2,0.5,0.5,0.7,0.9c0.4,0.8,1,1.3,1.6,1.7s1.4,0.6,2.5,0.6c0.9,0,1.6-0.2,2.1-0.6s0.8-0.8,0.8-1.3c0-0.8-0.3-1.3-0.9-1.6
		c-0.6-0.3-1.5-0.7-2.8-1c-1.5-0.4-2.7-0.7-3.6-1.1c-0.9-0.4-1.7-0.9-2.2-1.6c-0.6-0.7-0.8-1.5-0.8-2.4s0.3-1.7,0.8-2.4
		c0.5-0.8,1.3-1.4,2.3-1.8c1-0.5,2.2-0.7,3.6-0.7c1.1,0,2.1,0.1,3,0.3s1.6,0.5,2.2,0.9c0.6,0.4,1,0.8,1.3,1.3s0.5,0.9,0.5,1.4
		s-0.2,0.9-0.5,1.2s-0.8,0.5-1.4,0.5c-0.4,0-0.8-0.1-1.1-0.4c-0.3-0.2-0.7-0.6-1.1-1.1c-0.3-0.4-0.7-0.8-1.1-1s-1-0.4-1.8-0.4
		s-1.4,0.2-1.9,0.5s-0.8,0.7-0.8,1.2c0,0.4,0.2,0.8,0.6,1.1c0.4,0.3,0.9,0.5,1.5,0.7s1.5,0.4,2.6,0.7c1.3,0.3,2.4,0.7,3.2,1.2
		c0.8,0.4,1.5,1,1.9,1.6C156.8,24.5,157,25.2,157,25.9z"/>
</g>
<g>
	<path class="st2" d="M30.5,19.2c1.9,1.9,1.9,5.1,0,7c-0.8,0.8-1.8,1.3-2.9,1.4c-0.1,1.1-0.6,2.1-1.4,2.9c-1,1-2.2,1.5-3.5,1.5
		c-2.7,0-4.9-2.2-4.9-4.9c0-1.3,0.5-2.5,1.4-3.5c0.2-0.2,0.4-0.3,0.6-0.5l-1.6-1.6l0,0L16,19.3L12.3,23c0.2,0.1,0.4,0.3,0.5,0.5
		c1.9,1.9,1.9,5.1,0,7c-1,1-2.2,1.4-3.5,1.4s-2.5-0.5-3.5-1.4c-0.8-0.8-1.3-1.8-1.4-2.9c-1.1-0.1-2.1-0.6-2.9-1.4
		c-1-1-1.5-2.2-1.5-3.5c0-2.7,2.2-5,5-5c1.3,0,2.5,0.5,3.5,1.4c0.2,0.2,0.4,0.4,0.5,0.6l1.6-1.6l0,0l2.1-2.1l-3.8-3.8
		c-0.1,0.2-0.3,0.4-0.5,0.5c-1,1-2.2,1.4-3.5,1.4s-2.5-0.5-3.5-1.4c-1.9-1.9-1.9-5.1,0-7c0.9-0.7,1.9-1.2,3-1.3
		c0.1-1.1,0.6-2.2,1.4-3C6.7,0.5,8,0,9.3,0c2.7,0,4.9,2.2,4.9,5c0,1.3-0.5,2.5-1.4,3.5c-0.2,0.2-0.4,0.4-0.6,0.5l2.8,2.7l0,0l1,1
		L19.8,9c-0.2-0.2-0.4-0.3-0.6-0.5c-1.9-1.9-1.9-5.1,0-7s5.1-1.9,7,0c0.8,0.8,1.3,1.8,1.4,2.9c1.1,0.1,2.1,0.6,2.9,1.4
		c0.9,0.9,1.4,2.2,1.4,3.5c0,2.7-2.2,4.9-4.9,4.9c-1.3,0-2.5-0.5-3.5-1.4c-0.2-0.2-0.3-0.4-0.5-0.6L19.2,16l3.7,3.7
		c0.2-0.2,0.3-0.4,0.5-0.6C25.4,17.3,28.6,17.3,30.5,19.2z"/>
	<g>
		<path class="st3" d="M15,11.8l1,1l0,0l-3.3,3.3l-3.8-3.8c-0.1,0.2-0.3,0.4-0.5,0.5c-1,1-2.2,1.4-3.5,1.4s-2.5-0.5-3.5-1.4
			c-1.9-1.9-1.9-5.1,0-7c0.9-0.8,1.9-1.3,3-1.4c0.1-1.1,0.6-2.2,1.4-3C6.7,0.5,8,0,9.3,0c2.7,0,4.9,2.2,4.9,5c0,1.3-0.5,2.5-1.4,3.5
			c-0.2,0.2-0.4,0.4-0.6,0.5L15,11.8L15,11.8z"/>
		<path class="st3" d="M30.5,26.2c-0.8,0.8-1.8,1.3-2.9,1.4c-0.1,1.1-0.6,2.1-1.4,2.9c-1,1-2.2,1.5-3.5,1.5c-2.7,0-4.9-2.2-4.9-4.9
			c0-1.3,0.5-2.5,1.4-3.5c0.2-0.2,0.4-0.3,0.6-0.5l-1.6-1.6l0,0L16,19.3l3.3-3.3l3.7,3.7c0.2-0.2,0.3-0.4,0.5-0.6
			c1.9-1.9,5.1-1.9,7,0C32.4,21,32.4,24.3,30.5,26.2z"/>
	</g>
	<path d="M23.5,19.2c-0.2,0.2-0.4,0.4-0.5,0.6l-3.7-3.7l1.2-1.2l-0.8-0.8l-8.4,8.4c-0.5-0.2-0.9-0.3-1.4-0.4
		c-0.1-0.5-0.2-0.9-0.4-1.4l1.8-1.8l-0.8-0.8L9,19.8c-0.2-0.2-0.3-0.4-0.5-0.6c-0.9-0.9-2.2-1.4-3.5-1.4c-2.8-0.1-5,2.2-5,4.9
		c0,1.3,0.5,2.5,1.4,3.5c0.8,0.8,1.8,1.3,2.9,1.4c0.1,1.1,0.6,2.1,1.4,2.9c1,1,2.2,1.4,3.5,1.4s2.5-0.5,3.5-1.4c1.9-1.9,1.9-5.1,0-7
		c-0.2-0.2-0.4-0.3-0.5-0.5l3.7-3.7l1.2,1.2l0.8-0.8l-1.2-1.2l1.8-1.8l4,4c-0.2,0.4-0.3,0.9-0.4,1.4c-0.5,0.1-1,0.2-1.4,0.4
		l-1.8-1.8l-0.8,0.8l1.6,1.6c-0.2,0.2-0.4,0.3-0.6,0.5c-0.9,0.9-1.4,2.2-1.4,3.5c0,2.7,2.2,4.9,4.9,4.9c1.3,0,2.5-0.5,3.5-1.4
		c0.8-0.8,1.3-1.8,1.4-2.9c1.1-0.1,2.1-0.6,2.9-1.4c1.9-1.9,1.9-5.1,0-7C28.6,17.3,25.4,17.3,23.5,19.2z M12,24.3
		c1.5,1.5,1.5,4,0,5.5s-4,1.5-5.5,0s-1.5-4,0-5.5l-0.8-0.8c-0.8,0.8-1.3,1.9-1.4,3c-0.8-0.1-1.6-0.5-2.2-1.1C1.4,24.7,1,23.7,1,22.7
		c0-2.1,1.7-3.9,3.9-3.9c1,0,2,0.4,2.7,1.1c0.2,0.2,0.6,0.7,0.6,0.7C8.5,21,8.6,21.5,8.7,22c-0.1,0-0.3,0-0.4,0.1l0.2,1
		c1-0.2,1.9,0,2.7,0.5C11.3,23.7,11.9,24.1,12,24.3z M29.7,25.4c-1.5,1.5-4,1.5-5.5,0l-0.8,0.8c0.8,0.8,1.9,1.3,3,1.4
		c-0.1,0.8-0.5,1.6-1.1,2.2c-0.7,0.7-1.7,1.1-2.7,1.1c-2.1,0-3.9-1.7-3.9-3.9c0-1,0.4-2,1.1-2.7c0.6-0.6,1.4-1,2.2-1.1
		c0,0.1,0,0.3,0.1,0.4l1-0.2c-0.2-1.3,0.2-2.6,1.1-3.5c1.5-1.5,4-1.5,5.5,0C31.3,21.5,31.3,23.9,29.7,25.4z"/>
	<g>
		<path class="st4" d="M9.2,29.1l-0.1,1.1c0.1,0,0.2,0,0.3,0c0.5,0,1-0.1,1.5-0.4l-0.5-0.9C10,29.1,9.6,29.2,9.2,29.1z"/>
		<path class="st4" d="M10.8,28.5l0.8,0.8c1.2-1.2,1.2-3.3,0-4.5l-0.8,0.8C11.7,26.4,11.7,27.7,10.8,28.5z"/>
		<path class="st4" d="M22.8,2.9l0.1-1.1c-0.6,0-1.2,0.1-1.7,0.3L21.7,3C22.1,2.9,22.4,2.8,22.8,2.9z"/>
		<path class="st4" d="M21.2,6.5c-0.4-0.4-0.6-0.9-0.6-1.5s0.2-1.1,0.6-1.5l-0.8-0.8c-0.6,0.6-0.9,1.4-0.9,2.2s0.3,1.6,0.9,2.2
			L21.2,6.5z"/>
	</g>
	<rect x="14.1" y="16.4" transform="matrix(0.7071 -0.7071 0.7071 0.7071 -7.6043 15.5908)" width="1.8" height="1.1"/>
	<g>
		<path class="st4" d="M5.2,12.5l-0.1-1.1c-0.4,0-0.8,0-1.1-0.2l-0.5,0.9c0.5,0.2,1,0.4,1.5,0.4C5,12.5,5.1,12.5,5.2,12.5z"/>
		<path class="st4" d="M3.5,10.8c-0.4-0.4-0.6-0.9-0.6-1.5s0.2-1.1,0.6-1.5L2.7,7.1C2.1,7.7,1.8,8.5,1.8,9.3s0.3,1.6,0.9,2.2
			L3.5,10.8z"/>
		<path class="st4" d="M29.1,22.9l1.1,0.1c0-0.6-0.1-1.2-0.3-1.7L29,21.8C29.1,22.1,29.1,22.5,29.1,22.9z"/>
		<path class="st4" d="M24.8,20.5l0.8,0.8c0.8-0.8,2.2-0.8,3,0l0.8-0.8C28,19.2,26,19.2,24.8,20.5z"/>
	</g>
</g>
<path d="M5,14.2c1.3,0,2.5-0.5,3.5-1.4c0.2-0.2,0.3-0.4,0.5-0.5l3.8,3.8l-1.1,1.1l0.8,0.8l8.4-8.4c0.2,0.1,0.5,0.2,0.7,0.2l-5.6,5.6
	l0.8,0.8l5.6-5.6c0.1,0.3,0.2,0.5,0.3,0.8l-1.8,1.8l0.8,0.8l1.6-1.6c0.2,0.2,0.3,0.4,0.5,0.6c0.9,0.9,2.2,1.4,3.5,1.4
	c2.7,0,5-2.2,5-5c0-1.3-0.5-2.5-1.4-3.5c-0.8-0.8-1.8-1.3-3-1.4c-0.1-1.1-0.6-2.1-1.4-2.9c-1.9-1.9-5.1-1.9-7,0
	c-1.9,1.9-1.9,5.1,0,7c0.2,0.2,0.4,0.4,0.6,0.5L16,12.8l-1.2-1.2l-0.8,0.8l1.2,1.2l-1.8,1.8l-4-4c0.1-0.3,0.2-0.5,0.3-0.8l3.3,3.3
	l0.8-0.8l-3.3-3.3c0.2-0.1,0.5-0.1,0.7-0.2l1.8,1.8l0.8-0.8L12.2,9c0.2-0.2,0.4-0.3,0.6-0.5c0.9-0.9,1.4-2.2,1.4-3.5
	c0-2.7-2.2-5-5-5C8,0,6.8,0.5,5.9,1.4c-0.8,0.8-1.3,1.8-1.4,3C3.3,4.5,2.3,5,1.5,5.8c-1.9,1.9-1.9,5.1,0,7C2.5,13.8,3.7,14.2,5,14.2
	z M20,2.2c1.5-1.5,4-1.5,5.5,0c1.5,1.5,1.5,4,0,5.5l0.8,0.8c0.8-0.8,1.3-1.9,1.4-3c0.8,0.1,1.6,0.5,2.2,1.1C30.6,7.3,31,8.3,31,9.3
	c0,2.1-1.7,3.9-3.9,3.9c-1,0-2-0.4-2.7-1.1c-0.6-0.6-1-1.4-1.1-2.2c0.1,0,0.3,0,0.4-0.1l-0.2-1.1C22.2,9,20.9,8.6,20,7.7
	C18.5,6.2,18.5,3.7,20,2.2z M2.3,6.5c1.5-1.5,4-1.5,5.5,0l0.8-0.8C7.7,5,6.6,4.5,5.5,4.4C5.6,3.5,6,2.8,6.6,2.2
	c0.7-0.7,1.7-1.1,2.7-1.1c2.1,0,3.9,1.7,3.9,3.9c0,1-0.4,2-1.1,2.7c-0.2,0.2-0.7,0.6-0.7,0.6c-0.4,0.3-0.9,0.4-1.4,0.5
	c0-0.1,0-0.3-0.1-0.4L8.8,8.6c0.2,1,0,1.9-0.5,2.8c0,0-0.4,0.5-0.6,0.7c-1.5,1.5-4,1.5-5.5,0C0.7,10.5,0.7,8.1,2.3,6.5z"/>
</svg>
