<svg id="Layer_1" data-name="Layer 1" xmlns="http://www.w3.org/2000/svg" viewBox="0 0 161.53 32"><defs><style>.cls-1,.cls-2{fill:none;stroke-miterlimit:10;}.cls-1{stroke:#999;stroke-width:2px;}.cls-2{stroke:#fff;}.cls-3{fill:#e0e0e2;}.cls-4{fill:#acabb1;}.cls-5{fill:#fff;}</style></defs><path class="cls-1" d="M51.12,18.3h-4.2v6.5a2.82,2.82,0,0,1-.7,2.1,2.19,2.19,0,0,1-1.7.7,2.06,2.06,0,0,1-1.7-.7,3.28,3.28,0,0,1-.6-2.1V7.1a2.78,2.78,0,0,1,.7-2.2,3.39,3.39,0,0,1,2.2-.7h6a14.81,14.81,0,0,1,4.1.4A9.29,9.29,0,0,1,57.62,6a6,6,0,0,1,1.6,2.2,7.29,7.29,0,0,1,.5,3,6.39,6.39,0,0,1-2.2,5.3A9.94,9.94,0,0,1,51.12,18.3Z"/><path class="cls-1" d="M70.33,25.2a11.94,11.94,0,0,1-3,1.8,8.29,8.29,0,0,1-3.2.6,6.53,6.53,0,0,1-2.9-.6,4.14,4.14,0,0,1-1.9-1.8,4.81,4.81,0,0,1-.7-2.4,4.43,4.43,0,0,1,1.1-3,5.93,5.93,0,0,1,3-1.7c.3-.1.9-.2,2-.4s2-.4,2.81-.6,1.59-.4,2.5-.7a5.07,5.07,0,0,0-.7-2.5,3.09,3.09,0,0,0-2.5-.8,4.77,4.77,0,0,0-2.4.5A4.66,4.66,0,0,0,63,15c-.41.6-.71,1-.8,1.2a1.33,1.33,0,0,1-1,.3A1.64,1.64,0,0,1,60,16a1.66,1.66,0,0,1-.5-1.2,3.7,3.7,0,0,1,.79-2.2,6.29,6.29,0,0,1,2.5-1.8A10.29,10.29,0,0,1,67,10.1a10.65,10.65,0,0,1,4.4.7,4,4,0,0,1,2.3,2.1,9.91,9.91,0,0,1,.7,3.8v4.8a7.66,7.66,0,0,0,.4,2.5,6.09,6.09,0,0,1,.4,1.7,1.73,1.73,0,0,1-.6,1.2,1.87,1.87,0,0,1-1.4.5,1.94,1.94,0,0,1-1.3-.6A2.74,2.74,0,0,1,70.33,25.2Z"/><path class="cls-1" d="M91.22,22.3a3.92,3.92,0,0,1-.5,1.7,4.73,4.73,0,0,1-1.5,1.7,8.3,8.3,0,0,1-2.5,1.3,11.42,11.42,0,0,1-3.3.5,8.46,8.46,0,0,1-6.2-2.3A8.4,8.4,0,0,1,75,19a9.47,9.47,0,0,1,1-4.6,7.75,7.75,0,0,1,2.9-3.1,9.2,9.2,0,0,1,4.6-1.1,9.52,9.52,0,0,1,3,.5,7.24,7.24,0,0,1,2.3,1.2,11,11,0,0,1,1.5,1.6,3.68,3.68,0,0,1,.5,1.6,1.76,1.76,0,0,1-.6,1.3,1.74,1.74,0,0,1-1.4.5,1.4,1.4,0,0,1-.9-.3,9.22,9.22,0,0,1-.81-.9,7.25,7.25,0,0,0-1.59-1.8,3.82,3.82,0,0,0-2.2-.6,3.44,3.44,0,0,0-3,1.5,6.16,6.16,0,0,0-1.2,4,7.8,7.8,0,0,0,.3,2.2,4.61,4.61,0,0,0,.9,1.7,3.81,3.81,0,0,0,1.4,1.1,4.78,4.78,0,0,0,1.8.4,3.8,3.8,0,0,0,2.2-.6,5.71,5.71,0,0,0,1.6-1.8,3.47,3.47,0,0,1,.8-1.1,1.5,1.5,0,0,1,1.1-.4,1.61,1.61,0,0,1,1.3.6A1.72,1.72,0,0,1,91.22,22.3Z"/><path class="cls-1" d="M95.62,4.3h6a15.37,15.37,0,0,1,4,.4,8.36,8.36,0,0,1,3.1,1.6q3.6,3,3.6,9.3a15.29,15.29,0,0,1-.4,3.8,10.38,10.38,0,0,1-1.1,3.1,8.76,8.76,0,0,1-1.9,2.4,6.25,6.25,0,0,1-2,1.3,8.43,8.43,0,0,1-2.4.7,23,23,0,0,1-2.8.2h-6a3.36,3.36,0,0,1-1.9-.4,1.78,1.78,0,0,1-.8-1.1,9,9,0,0,1-.2-1.8V7.1a2.92,2.92,0,0,1,.7-2.2A2.78,2.78,0,0,1,95.62,4.3Z"/><path class="cls-1" d="M129.53,18.9a9.68,9.68,0,0,1-.61,3.5,8.58,8.58,0,0,1-1.7,2.8,7.17,7.17,0,0,1-2.69,1.8,10.51,10.51,0,0,1-7,0,7.9,7.9,0,0,1-2.7-1.8,7.28,7.28,0,0,1-1.7-2.8,9.89,9.89,0,0,1-.6-3.5,9.51,9.51,0,0,1,.6-3.5,8.75,8.75,0,0,1,1.7-2.8,7.52,7.52,0,0,1,2.7-1.8,9.81,9.81,0,0,1,3.5-.6,9.51,9.51,0,0,1,3.5.6,6.39,6.39,0,0,1,2.69,1.8,7,7,0,0,1,1.7,2.8A9.89,9.89,0,0,1,129.53,18.9Z"/><path class="cls-1" d="M145.63,22.3a4.06,4.06,0,0,1-.5,1.7,4.73,4.73,0,0,1-1.5,1.7,8.42,8.42,0,0,1-2.5,1.3,11.42,11.42,0,0,1-3.3.5,8.44,8.44,0,0,1-6.2-2.3,8.4,8.4,0,0,1-2.2-6.2,9.47,9.47,0,0,1,1-4.6,7.89,7.89,0,0,1,2.9-3.1,9.2,9.2,0,0,1,4.6-1.1,9.43,9.43,0,0,1,3,.5,7.14,7.14,0,0,1,2.3,1.2,11,11,0,0,1,1.5,1.6,3.68,3.68,0,0,1,.5,1.6,1.76,1.76,0,0,1-.6,1.3,1.74,1.74,0,0,1-1.4.5,1.4,1.4,0,0,1-.9-.3,8.18,8.18,0,0,1-.8-.9,7.26,7.26,0,0,0-1.6-1.8,3.8,3.8,0,0,0-2.2-.6,3.44,3.44,0,0,0-3,1.5,6.16,6.16,0,0,0-1.2,4,7.8,7.8,0,0,0,.3,2.2,4.61,4.61,0,0,0,.9,1.7,3.81,3.81,0,0,0,1.4,1.1,4.78,4.78,0,0,0,1.8.4,3.8,3.8,0,0,0,2.2-.6,5.71,5.71,0,0,0,1.6-1.8,3.47,3.47,0,0,1,.8-1.1,1.5,1.5,0,0,1,1.1-.4,1.61,1.61,0,0,1,1.3.6A2.11,2.11,0,0,1,145.63,22.3Z"/><path class="cls-1" d="M160.53,22a4.92,4.92,0,0,1-.9,3,5.4,5.4,0,0,1-2.5,1.9,12.24,12.24,0,0,1-4.1.6,9.34,9.34,0,0,1-3.9-.7,5.82,5.82,0,0,1-2.4-1.8,3.68,3.68,0,0,1-.8-2.1,1.66,1.66,0,0,1,.5-1.2,1.9,1.9,0,0,1,1.3-.5,1.49,1.49,0,0,1,1,.3,3.51,3.51,0,0,1,.7.9,4.29,4.29,0,0,0,4.1,2.3,3.28,3.28,0,0,0,2.1-.6,1.7,1.7,0,0,0,.8-1.3,1.6,1.6,0,0,0-.9-1.6,12.22,12.22,0,0,0-2.8-1,26.62,26.62,0,0,1-3.6-1.1,5.24,5.24,0,0,1-2.2-1.6,3.49,3.49,0,0,1-.8-2.4,4.07,4.07,0,0,1,.8-2.4,4.67,4.67,0,0,1,2.3-1.8,8,8,0,0,1,3.6-.7,13.86,13.86,0,0,1,3,.3,6.34,6.34,0,0,1,2.2.9,4,4,0,0,1,1.3,1.3,2.65,2.65,0,0,1,.5,1.4,1.66,1.66,0,0,1-.5,1.2,2,2,0,0,1-1.4.5,1.5,1.5,0,0,1-1.1-.4,5.63,5.63,0,0,1-1.1-1.1,3.46,3.46,0,0,0-1.1-1,4,4,0,0,0-1.8-.4,3.56,3.56,0,0,0-1.9.5,1.41,1.41,0,0,0-.8,1.2,1.38,1.38,0,0,0,.6,1.1,5.23,5.23,0,0,0,1.5.7c.6.2,1.5.4,2.6.7a10.72,10.72,0,0,1,3.2,1.2,5.07,5.07,0,0,1,1.9,1.6A3.7,3.7,0,0,1,160.53,22Z"/><path class="cls-2" d="M47.73,22.2h-4.2v6.5a2.82,2.82,0,0,1-.71,2.1,2.19,2.19,0,0,1-1.7.7,2.06,2.06,0,0,1-1.7-.7,3.28,3.28,0,0,1-.6-2.1V11.1a2.78,2.78,0,0,1,.71-2.2,3.39,3.39,0,0,1,2.2-.7h6a14.73,14.73,0,0,1,4.09.4,6.94,6.94,0,0,1,2.41,1.3,5.83,5.83,0,0,1,1.59,2.2,7.13,7.13,0,0,1,.5,3,6.39,6.39,0,0,1-2.2,5.3A9.93,9.93,0,0,1,47.73,22.2Z"/><path class="cls-2" d="M66.83,29.1a11.94,11.94,0,0,1-3,1.8,8.29,8.29,0,0,1-3.2.6,6.53,6.53,0,0,1-2.9-.6,4.17,4.17,0,0,1-1.91-1.8,4.81,4.81,0,0,1-.7-2.4,4.48,4.48,0,0,1,1.1-3,5.93,5.93,0,0,1,3-1.7c.3-.1.9-.2,2-.4s2-.4,2.8-.6,1.6-.4,2.51-.7a5.07,5.07,0,0,0-.7-2.5,3.09,3.09,0,0,0-2.5-.8,4.77,4.77,0,0,0-2.4.5,4.66,4.66,0,0,0-1.4,1.4c-.41.6-.71,1-.8,1.2a1.33,1.33,0,0,1-1,.3,1.64,1.64,0,0,1-1.2-.5,1.66,1.66,0,0,1-.5-1.2,3.7,3.7,0,0,1,.79-2.2,6.29,6.29,0,0,1,2.5-1.8,10.26,10.26,0,0,1,4.21-.7,10.65,10.65,0,0,1,4.4.7,4,4,0,0,1,2.3,2.1,9.91,9.91,0,0,1,.7,3.8v4.8a7.66,7.66,0,0,0,.4,2.5,6.09,6.09,0,0,1,.4,1.7,1.73,1.73,0,0,1-.6,1.2,1.87,1.87,0,0,1-1.4.5,1.94,1.94,0,0,1-1.3-.6A3.5,3.5,0,0,1,66.83,29.1Z"/><path class="cls-2" d="M87.83,26.2a4.06,4.06,0,0,1-.5,1.7,4.73,4.73,0,0,1-1.5,1.7,8.42,8.42,0,0,1-2.5,1.3,11.42,11.42,0,0,1-3.3.5,8.46,8.46,0,0,1-6.2-2.3,8.4,8.4,0,0,1-2.2-6.2,9.47,9.47,0,0,1,1-4.6,7.89,7.89,0,0,1,2.9-3.1,9.2,9.2,0,0,1,4.6-1.1,9.43,9.43,0,0,1,3,.5,7.14,7.14,0,0,1,2.3,1.2,11,11,0,0,1,1.5,1.6,3.68,3.68,0,0,1,.5,1.6,1.76,1.76,0,0,1-.6,1.3,1.74,1.74,0,0,1-1.4.5,1.4,1.4,0,0,1-.9-.3,8.18,8.18,0,0,1-.8-.9,7.26,7.26,0,0,0-1.6-1.8,3.8,3.8,0,0,0-2.2-.6,3.44,3.44,0,0,0-3,1.5,6.16,6.16,0,0,0-1.2,4,7.8,7.8,0,0,0,.3,2.2,4.61,4.61,0,0,0,.9,1.7,3.81,3.81,0,0,0,1.4,1.1,4.78,4.78,0,0,0,1.8.4,3.8,3.8,0,0,0,2.2-.6,5.71,5.71,0,0,0,1.6-1.8,3.47,3.47,0,0,1,.8-1.1,1.5,1.5,0,0,1,1.1-.4,1.61,1.61,0,0,1,1.3.6A2.33,2.33,0,0,1,87.83,26.2Z"/><path class="cls-2" d="M92.12,8.2h6a15.37,15.37,0,0,1,4,.4,8.36,8.36,0,0,1,3.1,1.6q3.6,3,3.6,9.3a15.29,15.29,0,0,1-.4,3.8,10.38,10.38,0,0,1-1.1,3.1,8.76,8.76,0,0,1-1.9,2.4,6.25,6.25,0,0,1-2,1.3,8.43,8.43,0,0,1-2.4.7,23,23,0,0,1-2.8.2h-6a3.36,3.36,0,0,1-1.9-.4,1.78,1.78,0,0,1-.8-1.1,9,9,0,0,1-.2-1.8V11.1A2.92,2.92,0,0,1,90,8.9,2.55,2.55,0,0,1,92.12,8.2Z"/><path class="cls-2" d="M126.12,22.8a9.89,9.89,0,0,1-.59,3.5,8.93,8.93,0,0,1-1.7,2.8,7.12,7.12,0,0,1-2.7,1.8,10.51,10.51,0,0,1-7,0,8,8,0,0,1-2.7-1.8,7.28,7.28,0,0,1-1.7-2.8,9.89,9.89,0,0,1-.6-3.5,9.51,9.51,0,0,1,.6-3.5,8.75,8.75,0,0,1,1.7-2.8,7.52,7.52,0,0,1,2.7-1.8,9.89,9.89,0,0,1,3.5-.6,9.51,9.51,0,0,1,3.5.6,6.43,6.43,0,0,1,2.7,1.8,7.28,7.28,0,0,1,1.7,2.8A10.54,10.54,0,0,1,126.12,22.8Z"/><path class="cls-2" d="M142.22,26.2a3.92,3.92,0,0,1-.5,1.7,4.73,4.73,0,0,1-1.5,1.7,8.3,8.3,0,0,1-2.5,1.3,11.42,11.42,0,0,1-3.3.5,8.46,8.46,0,0,1-6.2-2.3A8.4,8.4,0,0,1,126,22.9a9.47,9.47,0,0,1,1-4.6,7.8,7.8,0,0,1,2.89-3.1,9.22,9.22,0,0,1,4.61-1.1,9.43,9.43,0,0,1,3,.5,7.35,7.35,0,0,1,2.3,1.2,11,11,0,0,1,1.5,1.6,3.68,3.68,0,0,1,.5,1.6,1.9,1.9,0,0,1-2,1.8,1.38,1.38,0,0,1-.9-.3,8.18,8.18,0,0,1-.8-.9,7.26,7.26,0,0,0-1.6-1.8,3.85,3.85,0,0,0-2.2-.6,3.44,3.44,0,0,0-3,1.5,6.16,6.16,0,0,0-1.2,4,7.8,7.8,0,0,0,.3,2.2,4.61,4.61,0,0,0,.9,1.7,3.78,3.78,0,0,0,1.39,1.1,4.83,4.83,0,0,0,1.81.4,3.77,3.77,0,0,0,2.19-.6,5.61,5.61,0,0,0,1.61-1.8,3.47,3.47,0,0,1,.8-1.1,1.5,1.5,0,0,1,1.1-.4,1.61,1.61,0,0,1,1.3.6A2.24,2.24,0,0,1,142.22,26.2Z"/><path class="cls-2" d="M157,25.9a4.92,4.92,0,0,1-.9,3,5.4,5.4,0,0,1-2.5,1.9,12.24,12.24,0,0,1-4.1.6,9.34,9.34,0,0,1-3.9-.7,5.82,5.82,0,0,1-2.4-1.8,3.68,3.68,0,0,1-.8-2.1,1.66,1.66,0,0,1,.5-1.2,1.9,1.9,0,0,1,1.3-.5,1.49,1.49,0,0,1,1,.3,3.51,3.51,0,0,1,.7.9,4.29,4.29,0,0,0,4.1,2.3,3.28,3.28,0,0,0,2.1-.6,1.7,1.7,0,0,0,.8-1.3,1.6,1.6,0,0,0-.9-1.6,12.22,12.22,0,0,0-2.8-1,26.62,26.62,0,0,1-3.6-1.1,5.24,5.24,0,0,1-2.2-1.6,3.49,3.49,0,0,1-.8-2.4,4.07,4.07,0,0,1,.8-2.4,4.67,4.67,0,0,1,2.3-1.8,8,8,0,0,1,3.6-.7,13.86,13.86,0,0,1,3,.3,6.34,6.34,0,0,1,2.2.9,4,4,0,0,1,1.3,1.3,2.65,2.65,0,0,1,.5,1.4,1.66,1.66,0,0,1-.5,1.2,2,2,0,0,1-1.4.5,1.5,1.5,0,0,1-1.1-.4,5.63,5.63,0,0,1-1.1-1.1,3.46,3.46,0,0,0-1.1-1,4,4,0,0,0-1.8-.4,3.56,3.56,0,0,0-1.9.5,1.41,1.41,0,0,0-.8,1.2,1.38,1.38,0,0,0,.6,1.1,5.23,5.23,0,0,0,1.5.7c.6.2,1.5.4,2.6.7a10.72,10.72,0,0,1,3.2,1.2,5.07,5.07,0,0,1,1.9,1.6A4.2,4.2,0,0,1,157,25.9Z"/><path class="cls-3" d="M30.53,19.2a5,5,0,0,1,0,7,4.69,4.69,0,0,1-2.9,1.4,4.69,4.69,0,0,1-1.4,2.9,4.85,4.85,0,0,1-3.5,1.5,4.91,4.91,0,0,1-4.9-4.9,5.18,5.18,0,0,1,1.4-3.5c.2-.2.4-.3.6-.5l-1.6-1.6h0L16,19.3,12.33,23a1.21,1.21,0,0,1,.5.5,5,5,0,0,1,0,7,4.75,4.75,0,0,1-3.5,1.4,5.18,5.18,0,0,1-3.5-1.4,4.69,4.69,0,0,1-1.4-2.9,4.69,4.69,0,0,1-2.9-1.4A4.85,4.85,0,0,1,0,22.7a5,5,0,0,1,5-5,5.18,5.18,0,0,1,3.5,1.4,2.94,2.94,0,0,1,.5.6l1.6-1.6h0l2.1-2.1-3.8-3.8a1.21,1.21,0,0,1-.5.5,4.75,4.75,0,0,1-3.5,1.4,5.18,5.18,0,0,1-3.5-1.4,5,5,0,0,1,0-7,5.77,5.77,0,0,1,3-1.3,4.94,4.94,0,0,1,1.4-3A5,5,0,0,1,9.33,0a4.93,4.93,0,0,1,4.9,5,5.18,5.18,0,0,1-1.4,3.5,2.65,2.65,0,0,1-.6.5L15,11.7h0l1,1L19.82,9c-.2-.2-.4-.3-.6-.5a5,5,0,0,1,0-7,5,5,0,0,1,7,0,4.69,4.69,0,0,1,1.4,2.9,4.69,4.69,0,0,1,2.9,1.4,5,5,0,0,1,1.4,3.5A4.91,4.91,0,0,1,27,14.2a5.18,5.18,0,0,1-3.5-1.4c-.2-.2-.3-.4-.5-.6L19.23,16l3.7,3.7c.2-.2.3-.4.5-.6A5.24,5.24,0,0,1,30.53,19.2Z"/><path class="cls-4" d="M15,11.8l1,1h0l-3.3,3.3L8.92,12.3a1.21,1.21,0,0,1-.5.5,4.73,4.73,0,0,1-3.5,1.4,5.18,5.18,0,0,1-3.5-1.4,5,5,0,0,1,0-7,5.27,5.27,0,0,1,3-1.4,4.9,4.9,0,0,1,1.41-3A5,5,0,0,1,9.33,0a4.93,4.93,0,0,1,4.9,5,5.18,5.18,0,0,1-1.4,3.5,2.65,2.65,0,0,1-.6.5L15,11.8Z"/><path class="cls-4" d="M30.53,26.2a4.69,4.69,0,0,1-2.9,1.4,4.69,4.69,0,0,1-1.4,2.9,4.85,4.85,0,0,1-3.5,1.5,4.91,4.91,0,0,1-4.9-4.9,5.18,5.18,0,0,1,1.4-3.5c.2-.2.4-.3.6-.5l-1.6-1.6h0L16,19.3,19.32,16,23,19.7c.2-.2.29-.4.5-.6a5,5,0,0,1,7,0A5.13,5.13,0,0,1,30.53,26.2Z"/><path d="M23.53,19.2a2.41,2.41,0,0,0-.5.6l-3.71-3.7,1.21-1.2-.8-.8-8.4,8.4a7.37,7.37,0,0,0-1.4-.4,7.37,7.37,0,0,0-.4-1.4l1.8-1.8-.8-.8L9,19.8c-.2-.2-.3-.4-.5-.6A5,5,0,0,0,5,17.8a4.87,4.87,0,0,0-5,4.9,5.18,5.18,0,0,0,1.4,3.5,4.69,4.69,0,0,0,2.9,1.4,4.69,4.69,0,0,0,1.4,2.9,4.75,4.75,0,0,0,3.5,1.4,5.18,5.18,0,0,0,3.5-1.4,5,5,0,0,0,0-7c-.2-.2-.4-.3-.5-.5l3.7-3.7,1.2,1.2.79-.8-1.2-1.2,1.8-1.8,4,4a5.73,5.73,0,0,0-.4,1.4,5.73,5.73,0,0,0-1.4.4l-1.8-1.8-.79.8,1.6,1.6c-.2.2-.4.3-.6.5a5,5,0,0,0-1.4,3.5,4.91,4.91,0,0,0,4.9,4.9,5.2,5.2,0,0,0,3.5-1.4,4.79,4.79,0,0,0,1.4-2.9,4.64,4.64,0,0,0,2.89-1.4,5,5,0,0,0,0-7A4.79,4.79,0,0,0,23.53,19.2ZM12,24.3a3.89,3.89,0,0,1-5.5,5.5,3.92,3.92,0,0,1,0-5.5l-.8-.8a4.83,4.83,0,0,0-1.4,3A3.82,3.82,0,0,1,1,22.7a3.9,3.9,0,0,1,3.9-3.9,3.86,3.86,0,0,1,2.7,1.1c.2.2.6.7.6.7a3.36,3.36,0,0,1,.5,1.4c-.11,0-.31,0-.4.1l.2,1a3.61,3.61,0,0,1,2.7.5A5.48,5.48,0,0,1,12,24.3Zm17.7,1.1a3.92,3.92,0,0,1-5.5,0l-.8.8a4.94,4.94,0,0,0,3,1.4,3.82,3.82,0,0,1-3.8,3.3,3.9,3.9,0,0,1-3.9-3.9A3.82,3.82,0,0,1,22,23.2a.6.6,0,0,0,.1.4l1-.2a4.06,4.06,0,0,1,1.1-3.5,3.92,3.92,0,0,1,5.5,0A3.77,3.77,0,0,1,29.73,25.4Z"/><path class="cls-5" d="M9.23,29.1l-.11,1.1h.3a2.82,2.82,0,0,0,1.5-.4l-.5-.9A1.69,1.69,0,0,1,9.23,29.1Z"/><path class="cls-5" d="M10.83,28.5l.8.8a3.26,3.26,0,0,0,0-4.5l-.8.8A1.89,1.89,0,0,1,10.83,28.5Z"/><path class="cls-5" d="M22.82,2.9l.1-1.1a4.67,4.67,0,0,0-1.7.3l.51.9A2,2,0,0,1,22.82,2.9Z"/><path class="cls-5" d="M21.23,6.5a2,2,0,0,1-.6-1.5,2,2,0,0,1,.6-1.5l-.8-.8a3.14,3.14,0,0,0,0,4.4Z"/><rect x="14.11" y="16.42" width="1.8" height="1.1" transform="translate(-7.6 15.59) rotate(-45)"/><path class="cls-5" d="M5.23,12.5l-.1-1.1A2,2,0,0,1,4,11.2l-.5.9a4.19,4.19,0,0,0,1.5.4Z"/><path class="cls-5" d="M3.53,10.8a2,2,0,0,1-.6-1.5,2,2,0,0,1,.6-1.5l-.8-.7a3.14,3.14,0,0,0,0,4.4Z"/><path class="cls-5" d="M29.13,22.9l1.1.1a4.67,4.67,0,0,0-.3-1.7l-.9.5A3.75,3.75,0,0,1,29.13,22.9Z"/><path class="cls-5" d="M24.82,20.5l.8.8a2.18,2.18,0,0,1,3,0l.8-.8A3.2,3.2,0,0,0,24.82,20.5Z"/><path d="M5,14.2a5.18,5.18,0,0,0,3.5-1.4c.2-.2.3-.4.5-.5l3.8,3.8-1.1,1.1.8.8,8.39-8.4a1.9,1.9,0,0,0,.71.2L16,15.4l.79.8,5.6-5.6c.11.3.21.5.3.8l-1.8,1.8.8.8,1.6-1.6c.21.2.3.4.5.6a5,5,0,0,0,8.5-3.6,5.18,5.18,0,0,0-1.4-3.5,4.65,4.65,0,0,0-3-1.4,4.73,4.73,0,0,0-1.39-2.9,5,5,0,0,0-7,0,5,5,0,0,0,0,7,2.45,2.45,0,0,0,.6.5L16,12.8l-1.2-1.2-.8.8,1.2,1.2-1.81,1.8-4-4c.11-.3.2-.5.31-.8L13,13.9l.8-.8-3.3-3.3c.2-.1.5-.1.7-.2L13,11.4l.8-.8L12.23,9c.19-.2.39-.3.6-.5A5,5,0,0,0,9.23,0a4.71,4.71,0,0,0-3.3,1.4,4.7,4.7,0,0,0-1.4,3,4.7,4.7,0,0,0-3,1.4,5,5,0,0,0,0,7A4.75,4.75,0,0,0,5,14.2Zm15-12a3.89,3.89,0,0,1,5.5,5.5l.79.8a4.94,4.94,0,0,0,1.4-3A3.83,3.83,0,0,1,31,9.3a3.9,3.9,0,0,1-6.61,2.8,3.86,3.86,0,0,1-1.1-2.2.6.6,0,0,0,.4-.1l-.2-1.1A3.71,3.71,0,0,1,20,7.7,3.92,3.92,0,0,1,20,2.2ZM2.33,6.5a3.92,3.92,0,0,1,5.5,0l.8-.8a6.09,6.09,0,0,0-3.1-1.3,3.58,3.58,0,0,1,1.1-2.2,3.86,3.86,0,0,1,2.7-1.1A3.91,3.91,0,0,1,13.23,5a3.86,3.86,0,0,1-1.1,2.7c-.2.2-.7.6-.7.6a3.36,3.36,0,0,1-1.4.5.6.6,0,0,0-.1-.4l-1.1.2a4,4,0,0,1-.5,2.8s-.4.5-.6.7a3.92,3.92,0,0,1-5.5,0A4,4,0,0,1,2.33,6.5Z"/></svg>