<?xml version="1.0" encoding="utf-8"?>
<!-- Generator: Adobe Illustrator 26.2.1, SVG Export Plug-In . SVG Version: 6.00 Build 0)  -->
<svg version="1.1" id="Layer_1" xmlns="http://www.w3.org/2000/svg" xmlns:xlink="http://www.w3.org/1999/xlink" x="0px" y="0px"
	 viewBox="0 0 1216 232" style="enable-background:new 0 0 1216 232;" xml:space="preserve">
<style type="text/css">
	.st0{fill:none;stroke:url(#SVGID_1_);}
	.st1{fill:#94A3B8;}
	.st2{fill:#00DC82;}
	.st3{font-family:'BradleyHandITCTT-Bold';}
	.st4{font-size:20px;}
	.st5{fill:#CBD5E1;stroke:#CBD5E1;stroke-width:0.5;stroke-miterlimit:10;}
	.st6{font-family:'ArialMT';}
	.st7{fill:#898890;}
	.st8{fill:#91DC5A;}
	.st9{fill:#FFFFFF;}
	.st10{fill:#57565C;}
	.st11{fill:#E0E0E2;}
	.st12{fill:#ACABB1;}
</style>
<g>
	
		<linearGradient id="SVGID_1_" gradientUnits="userSpaceOnUse" x1="-109.0024" y1="999.1556" x2="1323.4976" y2="999.1597" gradientTransform="matrix(1 0 0 1 0 -846)">
		<stop  offset="0" style="stop-color:#94A3B8;stop-opacity:0"/>
		<stop  offset="0.5104" style="stop-color:#94A3B8"/>
		<stop  offset="1" style="stop-color:#94A3B8;stop-opacity:0"/>
	</linearGradient>
	<line class="st0" x1="-1" y1="153.1" x2="1215" y2="153.1"/>
	<circle class="st1" cx="238" cy="152.6" r="6"/>
	<circle class="st1" cx="484" cy="152.6" r="6"/>
	<circle class="st1" cx="730" cy="152.6" r="6"/>
	<circle class="st1" cx="976" cy="152.6" r="6"/>
	<path class="st2" d="M979.5,119.8h24.2c0.8,0,1.5-0.2,2.2-0.6s1.2-0.9,1.6-1.6c0.4-0.6,0.6-1.4,0.6-2.1s-0.2-1.5-0.6-2.1
		l-16.2-27.3c-0.4-0.6-0.9-1.2-1.6-1.6c-0.7-0.4-1.4-0.6-2.2-0.6s-1.5,0.2-2.2,0.6s-1.2,0.9-1.6,1.6l-4.2,7l-8.1-13.7
		c-0.4-0.6-0.9-1.2-1.6-1.6c-0.7-0.4-1.4-0.6-2.2-0.6s-1.5,0.2-2.2,0.6s-1.2,0.9-1.6,1.6l-20.2,34c-0.4,0.6-0.6,1.4-0.6,2.1
		s0.2,1.5,0.6,2.1c0.4,0.6,0.9,1.2,1.6,1.6c0.7,0.4,1.4,0.6,2.2,0.6h15.2c6,0,10.5-2.6,13.5-7.6l7.4-12.4l4-6.7l11.9,20h-15.9
		L979.5,119.8z M962.3,113.1h-10.6l15.9-26.7l7.9,13.3l-5.3,8.9C968.2,112,965.9,113.1,962.3,113.1z"/>
	<text transform="matrix(1 0 0 1 461.0454 190.2421)" class="st1 st3 st4">2023</text>
	<text transform="matrix(1 0 0 1 461.0454 190.2421)" class="st5 st3 st4">2023</text>
	<text transform="matrix(1 0 0 1 217.7334 191.3271)" class="st5 st3 st4">past</text>
	<text transform="matrix(1 0 0 1 217.7334 191.3271)" class="st5 st3 st4">past</text>
	<text transform="matrix(1 0 0 1 253.5334 191.3271)" class="st5 st6 st4">...</text>
	<text transform="matrix(1 0 0 1 253.5334 191.3271)" class="st5 st6 st4">...</text>
	<text transform="matrix(1 0 0 1 709.0603 190.2417)" class="st1 st3 st4">2024</text>
	<text transform="matrix(1 0 0 1 709.0603 190.2417)" class="st5 st3 st4">2024</text>
	<text transform="matrix(1 0 0 1 942.6602 191.3271)" class="st5 st3 st4">coming</text>
	<text transform="matrix(1 0 0 1 942.6602 191.3271)" class="st5 st3 st4">coming</text>
	<text transform="matrix(1 0 0 1 1009.76 191.3271)" class="st5 st6 st4">...</text>
	<text transform="matrix(1 0 0 1 1009.76 191.3271)" class="st5 st6 st4">...</text>
	<g>
		<path class="st7" d="M474.2,114.6h4.7v1.6h-17.7v2.6h48v-2.6h-17.8v-1.6h4.8l5.4-5.3V85.7c0-9.1-7.4-16.4-16.4-16.4
			c-9.1,0-16.4,7.4-16.4,16.4v23.5L474.2,114.6z"/>
		<polygon class="st8" points="508.4,114.6 508.4,111 505.2,114.1 505.2,111 502.1,114.1 502.1,110.9 498.4,114.6 		"/>
		<polygon class="st9" points="484.3,93.2 485.8,93.2 485.8,86.2 489.2,86.2 489.2,84.7 485.8,84.7 485.8,81.7 484.3,81.7 
			484.3,84.7 481.2,84.7 481.2,86.2 484.3,86.2 		"/>
		<polygon class="st8" points="468.3,110.9 468.3,114.1 465.2,111 465.2,114.1 462.1,111 462.1,114.6 472,114.6 		"/>
		<path class="st9" d="M485.2,104.1c-2.4,0-4.4,2-4.4,4.4c0,1.3,0.6,2.5,1.6,3.4l0.3,0.2v2.4h0.7V113h1.6v1.5h0.6V113h1.6v1.5h0.6
			v-2.4l0.3-0.2c1-0.8,1.6-2.1,1.6-3.4C489.6,106.1,487.6,104.1,485.2,104.1z M481.8,109.1c0-0.9,0.7-1.6,1.6-1.6s1.6,0.7,1.6,1.6
			s-0.7,1.6-1.6,1.6C482.5,110.6,481.8,109.9,481.8,109.1z M484.5,111.5l0.7-0.7l0.7,0.7H484.5z M487,110.6c-0.9,0-1.6-0.7-1.6-1.6
			s0.7-1.6,1.6-1.6s1.6,0.7,1.6,1.6S487.9,110.6,487,110.6z"/>
		<rect x="461.2" y="116.1" class="st10" width="48" height="2.6"/>
		<path d="M470.3,100.5l5.2-3.2l-1.5-3.1l1.7-1.5l-1-1.2l-2.6,2.3l1.4,2.9l-3.2,2v-13c0-3.7,1.4-7.2,3.7-9.8l2.3,1.9l-0.8,2.5
			l1.8,2.3l1.2-1l-1.3-1.7l0.5-1.7h2.8v-1.6h-3.1l-2.4-2c2.6-2.4,6.2-3.9,10.1-3.9c5.6,0,10.5,3.1,13.1,7.8l-4.4,4.4l0.9,3.5
			l-2.5,1.6l0.9,1.3l2.1-1.4l0.6,2.3l1.5-0.4l-1.7-6.5l3.4-3.4c0.7,1.7,1.1,3.6,1.1,5.6v22.1h1.6V85.7c0-9.1-7.4-16.4-16.4-16.4
			c-9.1,0-16.4,7.4-16.4,16.4v22.1h1.6L470.3,100.5L470.3,100.5z"/>
		<polygon points="498.4,114.6 502.1,110.9 502.1,114.1 505.2,111 505.2,114.1 508.4,111 508.4,113.3 509.9,113.3 509.9,107.2 
			506.8,110.3 506.8,107.2 503.7,110.3 503.7,107.2 496.2,114.6 491.4,114.6 491.4,116.1 509.2,116.1 509.2,118.8 461.2,118.8 
			461.2,116.1 479,116.1 479,114.6 474.2,114.6 466.8,107.2 466.8,110.3 463.6,107.2 463.6,110.3 460.5,107.2 460.5,113.3 
			462.1,113.3 462.1,111 465.2,114.1 465.2,111 468.3,114.1 468.3,110.9 472,114.6 459.7,114.6 459.7,120.3 510.7,120.3 
			510.7,114.6 		"/>
		<path d="M489.3,116.1v-3.2c1.2-1.1,1.9-2.7,1.9-4.4c0-3.3-2.7-6-6-6s-6,2.7-6,6c0,1.6,0.7,3.2,1.8,4.3v3.3L489.3,116.1
			L489.3,116.1z M480.8,108.5c0-2.4,2-4.4,4.4-4.4s4.4,2,4.4,4.4c0,1.3-0.6,2.6-1.6,3.4l-0.3,0.2v2.4h-0.6V113h-1.6v1.5h-0.6V113
			h-1.6v1.5h-0.7v-2.4l-0.3-0.2C481.3,111.1,480.8,109.8,480.8,108.5z"/>
		<circle cx="483.4" cy="109.1" r="1.6"/>
		<circle cx="487" cy="109.1" r="1.6"/>
		<polygon points="485.9,111.5 485.2,110.7 484.5,111.5 		"/>
		<path d="M482.7,80.2v2.9h-3v4.7h3v7h4.7v-7h3.3v-4.7h-3.3v-2.9H482.7L482.7,80.2z M489.2,84.7v1.6h-3.3v7h-1.6v-7h-3v-1.6h3v-2.9
			h1.6v2.9H489.2L489.2,84.7z"/>
		<rect x="480" y="99.4" width="10.4" height="1.6"/>
		<rect x="482.3" y="96.8" width="9.4" height="1.6"/>
		<rect x="478.6" y="96.8" width="2.6" height="1.6"/>
	</g>
	<text transform="matrix(1 0 0 1 446.2578 48.1228)" class="st1 st3 st4">VuePress</text>
	<text transform="matrix(1 0 0 1 446.2578 48.1228)" class="st5 st3 st4">VuePress</text>
	<text transform="matrix(1 0 0 1 219.3603 90.3882)" class="st1 st3 st4">Hugo</text>
	<text transform="matrix(1 0 0 1 219.3603 90.3882)" class="st5 st3 st4">Hugo</text>
	<text transform="matrix(1 0 0 1 197.2509 120.53)" class="st1 st3 st4">WordPress</text>
	<text transform="matrix(1 0 0 1 197.2509 120.53)" class="st5 st3 st4">WordPress</text>
	<g>
		<path class="st11" d="M754.7,99.6c3.3,3.3,3.3,8.6,0,11.9c-1.3,1.3-3.1,2.2-4.9,2.4c-0.2,1.9-1.1,3.6-2.5,5
			c-1.6,1.6-3.7,2.4-5.9,2.4c-4.6,0-8.4-3.8-8.4-8.4c0-2.2,0.9-4.3,2.4-5.9c0.3-0.3,0.6-0.6,1-0.8l-2.8-2.8l0,0l-3.6-3.6l-6.3,6.3
			c0.3,0.2,0.6,0.5,0.9,0.8c3.3,3.3,3.3,8.6,0,11.9c-1.6,1.6-3.8,2.5-5.9,2.5c-2.2,0-4.3-0.8-5.9-2.5c-1.3-1.3-2.2-3.1-2.4-4.9
			c-1.9-0.2-3.6-1.1-5-2.5c-1.6-1.6-2.4-3.7-2.4-5.9c0-4.6,3.8-8.4,8.4-8.4c2.2,0,4.3,0.9,5.9,2.4c0.3,0.3,0.6,0.7,0.9,1.1l2.8-2.8
			l0,0l3.6-3.6l-6.4-6.4c-0.2,0.3-0.5,0.6-0.8,0.9c-1.6,1.6-3.8,2.5-5.9,2.5s-4.3-0.8-5.9-2.5c-3.3-3.3-3.3-8.6,0-11.9
			c1.3-1.3,3.1-2.2,4.9-2.4c0.2-1.9,1.1-3.6,2.5-5c1.6-1.6,3.7-2.4,5.9-2.4c4.6,0,8.4,3.8,8.4,8.4c0,2.2-0.9,4.3-2.4,5.9
			c-0.3,0.3-0.7,0.6-1.1,0.9l4.7,4.7l0,0l1.7,1.7l6.4-6.4c-0.4-0.3-0.7-0.5-1-0.9c-3.3-3.3-3.3-8.6,0-11.9s8.6-3.3,11.9,0
			c1.3,1.3,2.2,3.1,2.4,4.9c1.9,0.2,3.6,1.1,5,2.5c1.6,1.6,2.4,3.7,2.4,5.9c0,4.6-3.8,8.4-8.4,8.4c-2.2,0-4.3-0.9-5.9-2.4
			c-0.3-0.3-0.6-0.6-0.8-1l-6.4,6.4l6.4,6.4c0.3-0.4,0.5-0.7,0.9-1C746.1,96.4,751.5,96.4,754.7,99.6z"/>
		<g>
			<path class="st12" d="M728.4,87l1.7,1.7l0,0l-5.6,5.6l-6.4-6.4c-0.2,0.3-0.5,0.6-0.8,0.9c-1.6,1.6-3.8,2.5-5.9,2.5
				s-4.3-0.8-5.9-2.5c-3.3-3.3-3.3-8.6,0-11.9c1.3-1.3,3.1-2.2,4.9-2.4c0.2-1.9,1.1-3.6,2.5-5c1.6-1.6,3.7-2.4,5.9-2.4
				c4.6,0,8.4,3.8,8.4,8.4c0,2.2-0.9,4.3-2.4,5.9c-0.3,0.3-0.7,0.6-1.1,0.9L728.4,87L728.4,87z"/>
			<path class="st12" d="M754.7,111.5c-1.3,1.3-3.1,2.2-4.9,2.4c-0.2,1.9-1.1,3.6-2.5,5c-1.6,1.6-3.7,2.4-5.9,2.4
				c-4.6,0-8.4-3.8-8.4-8.4c0-2.2,0.9-4.3,2.4-5.9c0.3-0.3,0.6-0.6,1-0.8l-2.8-2.8l0,0l-3.6-3.5l5.6-5.6l6.3,6.3
				c0.3-0.4,0.5-0.7,0.9-1c3.3-3.3,8.6-3.3,11.9,0S758,108.2,754.7,111.5z"/>
		</g>
		<path d="M711.4,91.2c2.2,0,4.3-0.8,5.9-2.5c0.3-0.3,0.6-0.6,0.8-0.9l6.4,6.4l-1.9,1.9l1.3,1.3l14.2-14.2c0.4,0.2,0.8,0.3,1.2,0.4
			l-9.6,9.6l1.3,1.3l9.6-9.6c0.1,0.5,0.3,0.9,0.5,1.3l-3.1,3.1l1.3,1.3l2.8-2.8c0.3,0.3,0.5,0.7,0.8,1c1.6,1.6,3.7,2.4,5.9,2.4
			c4.6,0,8.4-3.8,8.4-8.4c0-2.2-0.9-4.3-2.4-5.9c-1.4-1.4-3.1-2.2-5-2.5c-0.2-1.9-1-3.6-2.4-4.9c-3.3-3.3-8.6-3.3-11.9,0
			c-3.3,3.3-3.3,8.6,0,11.9c0.3,0.3,0.7,0.6,1,0.9l-6.4,6.4l-2-2l-1.3,1.3l2,2l-3,3l-6.8-6.8c0.2-0.4,0.3-0.9,0.5-1.3l5.6,5.6
			l1.3-1.3l-5.6-5.6c0.4-0.1,0.8-0.2,1.2-0.4l3.1,3.1l1.3-1.3l-2.8-2.8c0.4-0.3,0.7-0.6,1.1-0.9c1.6-1.6,2.4-3.7,2.4-5.9
			c0-4.6-3.8-8.4-8.4-8.4c-2.2,0-4.3,0.9-5.9,2.4c-1.4,1.4-2.2,3.1-2.5,5c-1.9,0.2-3.6,1-4.9,2.4c-3.3,3.3-3.3,8.6,0,11.9
			C707.1,90.4,709.2,91.2,711.4,91.2z M736.8,70.8c2.6-2.6,6.7-2.6,9.3,0c2.6,2.6,2.6,6.7,0,9.3l1.3,1.3c1.4-1.4,2.2-3.2,2.4-5.1
			c1.4,0.2,2.7,0.9,3.7,1.9c1.2,1.2,1.9,2.9,1.9,4.6c0,3.6-3,6.6-6.6,6.6c-1.7,0-3.4-0.7-4.6-1.9c-1-1-1.7-2.3-1.9-3.7
			c0.2,0,0.5-0.1,0.7-0.1l-0.3-1.8c-2.1,0.4-4.3-0.3-5.9-1.8C734.2,77.6,734.2,73.4,736.8,70.8z M706.7,78.2c2.6-2.6,6.7-2.6,9.3,0
			l1.3-1.3c-1.4-1.4-3.2-2.2-5.1-2.4c0.2-1.4,0.9-2.7,1.9-3.7c1.2-1.2,2.9-1.9,4.6-1.9c3.6,0,6.6,3,6.6,6.6c0,1.7-0.7,3.4-1.9,4.6
			c-0.3,0.3-1.3,1-1.3,1c-0.7,0.5-1.6,0.8-2.4,0.9c0-0.2-0.1-0.5-0.1-0.7l-1.8,0.3c0.3,1.6,0,3.3-0.9,4.7c0,0-0.7,0.9-1,1.2
			c-2.6,2.6-6.7,2.6-9.3,0C704.2,84.9,704.2,80.8,706.7,78.2z"/>
		<path d="M742.9,99.6c-0.3,0.3-0.6,0.7-0.9,1l-6.4-6.4l2.1-2.1l-1.3-1.3l-14.3,14.4c-0.8-0.3-1.6-0.6-2.4-0.7
			c-0.1-0.8-0.3-1.6-0.6-2.3l3.1-3.1l-1.3-1.3l-2.8,2.8c-0.3-0.4-0.6-0.7-0.9-1.1c-1.6-1.6-3.7-2.4-5.9-2.4c-4.6,0-8.4,3.8-8.4,8.4
			c0,2.2,0.9,4.3,2.4,5.9c1.4,1.4,3.1,2.2,5,2.5c0.2,1.9,1,3.6,2.4,4.9c1.6,1.6,3.8,2.5,5.9,2.5c2.2,0,4.3-0.8,5.9-2.5
			c3.3-3.3,3.3-8.6,0-11.9c-0.3-0.3-0.6-0.6-0.9-0.8l6.3-6.3l2,2l1.3-1.3l-2-2l3-3l6.7,6.7c-0.3,0.7-0.5,1.5-0.6,2.3
			c-0.8,0.1-1.7,0.3-2.4,0.7l-3.1-3.1l-1.3,1.3l2.8,2.8c-0.3,0.3-0.7,0.5-1,0.8c-1.6,1.6-2.4,3.7-2.4,5.9c0,4.6,3.8,8.4,8.4,8.4
			c2.2,0,4.3-0.9,5.9-2.4c1.4-1.4,2.2-3.1,2.5-5c1.9-0.2,3.6-1,4.9-2.4c3.3-3.3,3.3-8.6,0-11.9C751.5,96.4,746.1,96.4,742.9,99.6z
			 M723.4,108.3c2.6,2.6,2.6,6.7,0,9.3c-2.6,2.6-6.7,2.6-9.3,0s-2.6-6.7,0-9.3l-1.3-1.3c-1.4,1.4-2.2,3.2-2.4,5.1
			c-1.4-0.2-2.7-0.9-3.7-1.9c-1.2-1.2-1.9-2.9-1.9-4.6c0-3.6,3-6.6,6.6-6.6c1.7,0,3.4,0.7,4.6,1.9c0.3,0.3,1,1.3,1,1.3
			c0.5,0.7,0.8,1.6,0.9,2.4c-0.2,0-0.5,0.1-0.7,0.1l0.3,1.8c1.6-0.3,3.3,0,4.7,0.9C722.2,107.3,723.1,108,723.4,108.3z M753.5,110.2
			c-2.6,2.6-6.7,2.6-9.3,0l-1.3,1.3c1.4,1.4,3.2,2.2,5.1,2.4c-0.2,1.4-0.9,2.7-1.9,3.7c-1.2,1.2-2.9,1.9-4.6,1.9
			c-3.6,0-6.6-3-6.6-6.6c0-1.7,0.7-3.4,1.9-4.6c1-1,2.3-1.7,3.7-1.9c0,0.2,0.1,0.5,0.1,0.7l1.8-0.3c-0.4-2.1,0.3-4.3,1.8-5.9
			c2.6-2.6,6.7-2.6,9.3,0C756,103.5,756,107.7,753.5,110.2z"/>
		<g>
			<path class="st9" d="M718.6,116.5l-0.1,1.8c0.1,0,0.3,0,0.4,0c0.9,0,1.7-0.2,2.5-0.6l-0.8-1.6
				C719.9,116.4,719.2,116.6,718.6,116.5z"/>
			<path class="st9" d="M721.4,115.5l1.3,1.3c2.1-2.1,2.1-5.5,0-7.6l-1.3,1.3C722.8,111.8,722.8,114.1,721.4,115.5z"/>
			<path class="st9" d="M741.7,71.9l0.1-1.8c-1-0.1-2,0.1-2.9,0.6l0.8,1.6C740.4,72,741.1,71.9,741.7,71.9z"/>
			<path class="st9" d="M738.9,78c-0.7-0.7-1.1-1.6-1.1-2.5c0-1,0.4-1.9,1.1-2.5l-1.3-1.3c-1,1-1.6,2.4-1.6,3.8s0.6,2.8,1.6,3.8
				L738.9,78z"/>
		</g>
		<rect x="726.9" y="94.9" transform="matrix(0.7071 -0.7071 0.7071 0.7071 145.5866 543.1632)" width="3" height="1.8"/>
		<g>
			<path class="st9" d="M711.8,88.2l-0.1-1.8c-0.7,0.1-1.3-0.1-1.9-0.4l-0.8,1.6c0.8,0.4,1.6,0.6,2.5,0.6
				C711.5,88.2,711.7,88.2,711.8,88.2z"/>
			<path class="st9" d="M708.8,85.4c-0.7-0.7-1.1-1.6-1.1-2.5c0-1,0.4-1.9,1.1-2.5l-1.3-1.3c-1,1-1.6,2.4-1.6,3.8s0.6,2.8,1.6,3.8
				L708.8,85.4z"/>
			<path class="st9" d="M752.4,105.9l1.8,0.1c0.1-1-0.1-2-0.6-2.9l-1.6,0.8C752.3,104.5,752.4,105.2,752.4,105.9z"/>
			<path class="st9" d="M745,101.8l1.3,1.3c1.4-1.4,3.7-1.4,5.1,0l1.3-1.3C750.5,99.7,747.1,99.7,745,101.8z"/>
		</g>
	</g>
	<text transform="matrix(1 0 0 1 707.7188 48.1233)" class="st1 st3 st4">Nuxt</text>
	<text transform="matrix(1 0 0 1 707.7188 48.1233)" class="st5 st3 st4">Nuxt</text>
</g>
</svg>
