<?xml version="1.0" encoding="utf-8"?>
<!-- Generator: Adobe Illustrator 26.2.1, SVG Export Plug-In . SVG Version: 6.00 Build 0)  -->
<svg version="1.1" id="Layer_1" xmlns="http://www.w3.org/2000/svg" xmlns:xlink="http://www.w3.org/1999/xlink" x="0px" y="0px"
	 viewBox="0 0 342 69" style="enable-background:new 0 0 342 69;" xml:space="preserve">
<style type="text/css">
	.st0{fill:#00DC82;}
	.st1{fill:none;stroke:url(#SVGID_1_);}
	.st2{fill:#94A3B8;}
	.st3{fill:#CBD5E1;}
	.st4{font-family:'BradleyHandITCTT-Bold';}
	.st5{font-size:12px;}
	.st6{fill:none;stroke:#CBD5E1;stroke-width:0.5;stroke-miterlimit:10;}
	.st7{font-family:'ArialMT';}
	.st8{fill:#898890;}
	.st9{fill:#91DC5A;}
	.st10{fill:#FFFFFF;}
	.st11{fill:#57565C;}
	.st12{font-size:8px;}
	.st13{fill:#E0E0E2;}
	.st14{fill:#ACABB1;}
</style>
<path class="st0" d="M320.8,27.9H334c0.4,0,0.8-0.1,1.2-0.3c0.4-0.2,0.7-0.5,0.9-0.8c0.2-0.4,0.3-0.8,0.3-1.2c0-0.4-0.1-0.8-0.3-1.2
	l-8.9-14.9c-0.2-0.4-0.5-0.6-0.9-0.8s-0.8-0.3-1.2-0.3s-0.8,0.1-1.2,0.3c-0.4,0.2-0.7,0.5-0.9,0.8l-2.3,3.8l-4.4-7.4
	c-0.2-0.4-0.5-0.6-0.9-0.8c-0.4-0.2-0.8-0.3-1.2-0.3s-0.8,0.1-1.2,0.3c-0.4,0.2-0.7,0.5-0.9,0.8l-11,18.5c-0.2,0.4-0.3,0.8-0.3,1.2
	c0,0.4,0.1,0.8,0.3,1.2c0.2,0.4,0.5,0.6,0.9,0.8c0.4,0.2,0.8,0.3,1.2,0.3h8.3c3.3,0,5.7-1.4,7.4-4.1l4-6.8l2.2-3.6l6.5,10.9H323
	L320.8,27.9z M311.5,24.3h-5.8l8.7-14.6l4.3,7.3l-2.9,4.9C314.7,23.7,313.4,24.3,311.5,24.3z"/>
<linearGradient id="SVGID_1_" gradientUnits="userSpaceOnUse" x1="-1.486" y1="-980.4265" x2="344.514" y2="-980.4233" gradientTransform="matrix(1 0 0 -1 0 -940)">
	<stop  offset="4.189740e-05" style="stop-color:#94A3B8;stop-opacity:0"/>
	<stop  offset="0.5104" style="stop-color:#94A3B8"/>
	<stop  offset="1" style="stop-color:#94A3B8;stop-opacity:0"/>
</linearGradient>
<line class="st1" x1="0" y1="40.5" x2="342" y2="40.5"/>
<circle class="st2" cx="23.2" cy="41" r="3"/>
<circle class="st2" cx="121.4" cy="41" r="3"/>
<circle class="st2" cx="219.1" cy="41" r="3"/>
<circle class="st2" cx="317.2" cy="41" r="3"/>
<text transform="matrix(1 0 0 1 12.9997 62.5536)" class="st3 st4 st5">past...</text>
<text transform="matrix(1 0 0 1 12.9997 62.5536)" class="st6 st4 st5">past...</text>
<text transform="matrix(1 0 0 1 108.9522 63.5452)" class="st3 st4 st5">2023</text>
<text transform="matrix(1 0 0 1 108.9522 63.5452)" class="st6 st4 st5">2023</text>
<text transform="matrix(1 0 0 1 207.303 63.9126)" class="st3 st4 st5">2024</text>
<text transform="matrix(1 0 0 1 207.303 63.9126)" class="st6 st4 st5">2024</text>
<text transform="matrix(1 0 0 1 286.3779 63.754)" class="st3 st4 st5">Coming</text>
<text transform="matrix(1 0 0 1 286.3779 63.754)" class="st6 st4 st5">Coming</text>
<text transform="matrix(1 0 0 1 329.078 63.754)" class="st3 st7 st5">...</text>
<text transform="matrix(1 0 0 1 329.078 63.754)" class="st6 st7 st5">...</text>
<g>
	<text transform="matrix(1 0 0 1 16.9344 13.1118)" class="st3 st4 st5">Hugo</text>
	<text transform="matrix(1 0 0 1 16.9344 13.1118)" class="st6 st4 st5">Hugo</text>
</g>
<g>
	<text transform="matrix(1 0 0 1 3.6681 28.3748)" class="st3 st4 st5">WordPress</text>
	<text transform="matrix(1 0 0 1 3.6681 28.3748)" class="st6 st4 st5">WordPress</text>
</g>
<g>
	<path class="st8" d="M116,24.8h2.3v0.8h-8.6v1.3H133v-1.3h-8.6v-0.8h2.3l2.6-2.6V10.8c0-4.4-3.6-8-8-8s-8,3.6-8,8v11.4L116,24.8z"
		/>
	<polygon class="st9" points="132.6,24.8 132.6,23.1 131.1,24.6 131.1,23.1 129.5,24.6 129.5,23.1 127.8,24.8 	"/>
	<polygon class="st10" points="120.9,14.5 121.7,14.5 121.7,11.1 123.3,11.1 123.3,10.3 121.7,10.3 121.7,8.9 120.9,8.9 120.9,10.3 
		119.4,10.3 119.4,11.1 120.9,11.1 	"/>
	<polygon class="st9" points="113.2,23.1 113.2,24.6 111.7,23.1 111.7,24.6 110.1,23.1 110.1,24.8 115,24.8 	"/>
	<path class="st10" d="M121.4,19.8c-1.2,0-2.1,1-2.1,2.1c0,0.6,0.3,1.2,0.8,1.6l0.1,0.1v1.2h0.4v-0.7h0.8v0.7h0.3v-0.7h0.8v0.7h0.3
		v-1.1l0.1-0.1c0.5-0.4,0.8-1,0.8-1.7C123.5,20.7,122.5,19.8,121.4,19.8z M119.7,22.2c0-0.4,0.3-0.8,0.8-0.8s0.8,0.3,0.8,0.8
		c0,0.4-0.3,0.8-0.8,0.8S119.7,22.6,119.7,22.2z M121,23.3l0.4-0.4l0.4,0.4H121z M122.2,22.9c-0.4,0-0.8-0.3-0.8-0.8
		c0-0.4,0.3-0.8,0.8-0.8c0.4,0,0.8,0.3,0.8,0.8S122.7,22.9,122.2,22.9z"/>
	<rect x="109.7" y="25.6" class="st11" width="23.2" height="1.3"/>
	<path d="M114.1,18l2.5-1.6l-0.7-1.5l0.8-0.7l-0.5-0.6l-1.3,1.1l0.7,1.4l-1.5,1v-6.3c0-1.8,0.7-3.5,1.8-4.7L117,7l-0.4,1.2l0.9,1.1
		l0.6-0.5L117.5,8l0.3-0.8h1.3V6.5h-1.5l-1.1-0.9c1.3-1.2,3-1.9,4.9-1.9c2.7,0,5.1,1.5,6.3,3.8l-2.2,2.2l0.4,1.7l-1.2,0.8l0.4,0.6
		l1-0.7l0.3,1.1l0.7-0.2l-0.8-3.1l1.7-1.7c0.3,0.8,0.5,1.7,0.5,2.7v10.7h0.8V10.8c0-4.4-3.6-8-8-8s-8,3.6-8,8v10.7h0.8L114.1,18
		L114.1,18z"/>
	<polygon points="127.8,24.8 129.5,23.1 129.5,24.6 131.1,23.1 131.1,24.6 132.6,23.1 132.6,24.2 133.3,24.2 133.3,21.2 131.8,22.8 
		131.8,21.2 130.3,22.8 130.3,21.3 126.7,24.8 124.3,24.8 124.3,25.6 133,25.6 133,26.9 109.7,26.9 109.7,25.6 118.3,25.6 
		118.3,24.8 116,24.8 112.4,21.3 112.4,22.8 110.9,21.2 110.9,22.8 109.4,21.2 109.4,24.2 110.1,24.2 110.1,23.1 111.7,24.6 
		111.7,23.1 113.2,24.6 113.2,23.1 115,24.8 109,24.8 109,27.6 133.7,27.6 133.7,24.8 	"/>
	<path d="M123.3,25.6V24c0.6-0.5,0.9-1.3,0.9-2.1c0-1.6-1.3-2.9-2.9-2.9s-2.9,1.3-2.9,2.9c0,0.8,0.3,1.5,0.9,2.1v1.6H123.3
		L123.3,25.6z M119.2,21.9c0-1.2,1-2.1,2.1-2.1c1.2,0,2.1,1,2.1,2.1c0,0.6-0.3,1.3-0.8,1.7l-0.1,0.1v1.1h-0.3v-0.7h-0.8v0.7h-0.3
		v-0.7h-0.8v0.7h-0.4v-1.2l-0.1-0.1C119.5,23.1,119.2,22.5,119.2,21.9z"/>
	<circle cx="120.5" cy="22.2" r="0.8"/>
	<circle cx="122.2" cy="22.2" r="0.8"/>
	<polygon points="121.7,23.3 121.4,23 121,23.3 	"/>
	<path d="M120.1,8.2v1.4h-1.5v2.3h1.5v3.4h2.3v-3.4h1.6V9.6h-1.6V8.2H120.1L120.1,8.2z M123.3,10.3v0.8h-1.6v3.4h-0.8v-3.4h-1.5
		v-0.8h1.5V8.9h0.8v1.4L123.3,10.3L123.3,10.3z"/>
	<rect x="118.8" y="17.5" width="5.1" height="0.8"/>
	<rect x="119.9" y="16.2" width="4.5" height="0.8"/>
	<rect x="118.2" y="16.2" width="1.3" height="0.8"/>
</g>
<g>
	<text transform="matrix(1 0 0 1 106.3179 33.7189)" class="st3 st4 st12">Vuepress</text>
	<text transform="matrix(1 0 0 1 106.3179 33.7189)" class="st6 st4 st12">Vuepress</text>
</g>
<g>
	<text transform="matrix(1 0 0 1 210.1743 34.719)" class="st3 st4 st12">Nuxt</text>
	<text transform="matrix(1 0 0 1 210.1743 34.719)" class="st6 st4 st12">Nuxt</text>
</g>
<g>
	<path class="st13" d="M229.8,18.8c1.4,1.4,1.4,3.8,0,5.2c-0.6,0.6-1.4,1-2.2,1.1c-0.1,0.8-0.5,1.6-1.1,2.2
		c-0.7,0.7-1.6,1.1-2.6,1.1c-2,0-3.7-1.7-3.7-3.7c0-1,0.4-1.9,1.1-2.6c0.1-0.1,0.3-0.3,0.4-0.4l-1.2-1.2l0,0l-1.6-1.6l-2.8,2.8
		c0.1,0.1,0.3,0.2,0.4,0.3c1.4,1.4,1.4,3.8,0,5.2c-0.7,0.7-1.7,1.1-2.6,1.1c-0.9,0-1.9-0.4-2.6-1.1c-0.6-0.6-1-1.4-1.1-2.2
		c-0.8-0.1-1.6-0.5-2.2-1.1c-0.7-0.7-1.1-1.6-1.1-2.6c0-2,1.7-3.7,3.7-3.7c1,0,1.9,0.4,2.6,1.1c0.1,0.1,0.3,0.3,0.4,0.5L215,18l0,0
		l1.6-1.6l-2.8-2.8c-0.1,0.1-0.2,0.3-0.3,0.4c-0.7,0.7-1.7,1.1-2.6,1.1s-1.9-0.4-2.6-1.1c-1.4-1.4-1.4-3.8,0-5.2
		c0.6-0.6,1.4-1,2.2-1.1c0.1-0.8,0.5-1.6,1.1-2.2c0.7-0.7,1.6-1.1,2.6-1.1c2,0,3.7,1.7,3.7,3.7c0,1-0.4,1.9-1.1,2.6
		c-0.1,0.1-0.3,0.3-0.5,0.4l2.1,2l0,0L219,14l2.8-2.8c-0.2-0.1-0.3-0.2-0.4-0.4c-1.4-1.4-1.4-3.8,0-5.2c1.4-1.4,3.8-1.4,5.2,0
		c0.6,0.6,1,1.4,1.1,2.2c0.8,0.1,1.6,0.5,2.2,1.1c0.7,0.7,1.1,1.6,1.1,2.6c0,2-1.7,3.7-3.7,3.7c-1,0-1.9-0.4-2.6-1.1
		c-0.1-0.1-0.3-0.3-0.4-0.4l-2.8,2.8l2.8,2.8c0.1-0.2,0.2-0.3,0.4-0.4C226.1,17.3,228.4,17.3,229.8,18.8z"/>
	<g>
		<path class="st14" d="M218.3,13.2L219,14v0l-2.4,2.4l-2.8-2.8c-0.1,0.1-0.2,0.3-0.3,0.4c-0.7,0.7-1.7,1.1-2.6,1.1
			s-1.9-0.4-2.6-1.1c-1.4-1.4-1.4-3.8,0-5.2c0.6-0.6,1.4-1,2.2-1.1c0.1-0.8,0.5-1.6,1.1-2.2c0.7-0.7,1.6-1.1,2.6-1.1
			c2,0,3.7,1.7,3.7,3.7c0,1-0.4,1.9-1.1,2.6c-0.1,0.1-0.3,0.3-0.5,0.4L218.3,13.2L218.3,13.2z"/>
		<path class="st14" d="M229.8,24c-0.6,0.6-1.4,1-2.2,1.1c-0.1,0.8-0.5,1.6-1.1,2.2c-0.7,0.7-1.6,1.1-2.6,1.1c-2,0-3.7-1.7-3.7-3.7
			c0-1,0.4-1.9,1.1-2.6c0.1-0.1,0.3-0.3,0.4-0.4l-1.2-1.2l0,0l-1.6-1.6l2.4-2.4l2.8,2.8c0.1-0.2,0.2-0.3,0.4-0.4
			c1.4-1.4,3.8-1.4,5.2,0C231.3,20.2,231.3,22.6,229.8,24z"/>
	</g>
	<path d="M210.8,15.1c0.9,0,1.9-0.4,2.6-1.1c0.1-0.1,0.2-0.3,0.3-0.4l2.8,2.8l-0.8,0.8l0.6,0.6l6.2-6.2c0.2,0.1,0.4,0.1,0.5,0.2
		l-4.2,4.2l0.6,0.6l4.2-4.2c0.1,0.2,0.1,0.4,0.2,0.6l-1.4,1.4l0.6,0.6l1.2-1.2c0.1,0.1,0.2,0.3,0.4,0.4c0.7,0.7,1.6,1.1,2.6,1.1
		c2,0,3.7-1.7,3.7-3.7c0-1-0.4-1.9-1.1-2.6c-0.6-0.6-1.4-1-2.2-1.1c-0.1-0.8-0.5-1.6-1.1-2.2c-1.4-1.4-3.8-1.4-5.2,0
		c-1.4,1.4-1.4,3.8,0,5.2c0.1,0.1,0.3,0.3,0.4,0.4L219,14l-0.9-0.9l-0.6,0.6l0.9,0.9l-1.3,1.3l-3-3c0.1-0.2,0.2-0.4,0.2-0.6l2.5,2.5
		l0.6-0.6l-2.5-2.5c0.2,0,0.4-0.1,0.5-0.2l1.4,1.4l0.6-0.6l-1.2-1.2c0.2-0.1,0.3-0.3,0.5-0.4c0.7-0.7,1.1-1.6,1.1-2.6
		c0-2-1.7-3.7-3.7-3.7c-1,0-1.9,0.4-2.6,1.1c-0.6,0.6-1,1.4-1.1,2.2c-0.8,0.1-1.6,0.5-2.2,1.1c-1.4,1.4-1.4,3.8,0,5.2
		C208.9,14.7,209.9,15.1,210.8,15.1z M222,6.1c1.1-1.1,3-1.1,4.1,0c1.1,1.1,1.1,3,0,4.1l0.6,0.6c0.6-0.6,1-1.4,1.1-2.2
		c0.6,0.1,1.2,0.4,1.6,0.8c0.5,0.5,0.8,1.3,0.8,2c0,1.6-1.3,2.9-2.9,2.9c-0.8,0-1.5-0.3-2-0.8c-0.4-0.4-0.7-1-0.8-1.6
		c0.1,0,0.2,0,0.3,0l-0.1-0.8c-0.9,0.2-1.9-0.1-2.6-0.8C220.8,9.1,220.8,7.3,222,6.1z M208.8,9.4c1.1-1.1,3-1.1,4.1,0l0.6-0.6
		c-0.6-0.6-1.4-1-2.2-1.1c0.1-0.6,0.4-1.2,0.8-1.6c0.5-0.5,1.3-0.8,2-0.8c1.6,0,2.9,1.3,2.9,2.9c0,0.8-0.3,1.5-0.8,2
		c-0.1,0.1-0.6,0.4-0.6,0.4c-0.3,0.2-0.7,0.3-1.1,0.4c0-0.1,0-0.2,0-0.3l-0.8,0.1c0.1,0.7,0,1.4-0.4,2c0,0-0.3,0.4-0.4,0.5
		c-1.1,1.1-3,1.1-4.1,0C207.6,12.3,207.6,10.5,208.8,9.4z"/>
	<path d="M224.6,18.8c-0.1,0.1-0.3,0.3-0.4,0.4l-2.8-2.8l0.9-0.9l-0.6-0.6l-6.3,6.3c-0.3-0.1-0.7-0.2-1.1-0.3c0-0.4-0.1-0.7-0.3-1
		l1.4-1.4L215,18l-1.2,1.2c-0.1-0.2-0.3-0.3-0.4-0.5c-0.7-0.7-1.6-1.1-2.6-1.1c-2,0-3.7,1.7-3.7,3.7c0,1,0.4,1.9,1.1,2.6
		c0.6,0.6,1.4,1,2.2,1.1c0.1,0.8,0.5,1.6,1.1,2.2c0.7,0.7,1.7,1.1,2.6,1.1s1.9-0.4,2.6-1.1c1.4-1.4,1.4-3.8,0-5.2
		c-0.1-0.1-0.3-0.2-0.4-0.3l2.8-2.8l0.9,0.9l0.6-0.6l-0.9-0.9l1.3-1.3l2.9,2.9c-0.1,0.3-0.2,0.7-0.3,1c-0.4,0-0.7,0.1-1.1,0.3
		l-1.4-1.4l-0.6,0.6l1.2,1.2c-0.1,0.1-0.3,0.2-0.4,0.4c-0.7,0.7-1.1,1.6-1.1,2.6c0,2,1.7,3.7,3.7,3.7c1,0,1.9-0.4,2.6-1.1
		c0.6-0.6,1-1.4,1.1-2.2c0.8-0.1,1.6-0.5,2.2-1.1c1.4-1.4,1.4-3.8,0-5.2C228.4,17.3,226.1,17.3,224.6,18.8z M216.1,22.6
		c1.1,1.1,1.1,3,0,4.1c-1.1,1.1-3,1.1-4.1,0c-1.1-1.1-1.1-3,0-4.1l-0.6-0.6c-0.6,0.6-1,1.4-1.1,2.2c-0.6-0.1-1.2-0.4-1.6-0.8
		c-0.5-0.5-0.8-1.3-0.8-2c0-1.6,1.3-2.9,2.9-2.9c0.8,0,1.5,0.3,2,0.8c0.1,0.1,0.4,0.6,0.4,0.6c0.2,0.3,0.3,0.7,0.4,1.1
		c-0.1,0-0.2,0-0.3,0l0.1,0.8c0.7-0.1,1.4,0,2,0.4C215.5,22.2,216,22.4,216.1,22.6z M229.3,23.4c-1.1,1.1-3,1.1-4.1,0l-0.6,0.6
		c0.6,0.6,1.4,1,2.2,1.1c-0.1,0.6-0.4,1.2-0.8,1.6c-0.5,0.5-1.3,0.8-2,0.8c-1.6,0-2.9-1.3-2.9-2.9c0-0.8,0.3-1.5,0.8-2
		c0.4-0.4,1-0.7,1.6-0.8c0,0.1,0,0.2,0,0.3l0.8-0.1c-0.2-0.9,0.1-1.9,0.8-2.6c1.1-1.1,3-1.1,4.1,0C230.4,20.5,230.4,22.3,229.3,23.4
		z"/>
	<g>
		<path class="st10" d="M214,26.2l-0.1,0.8c0.1,0,0.1,0,0.2,0c0.4,0,0.8-0.1,1.1-0.3l-0.4-0.7C214.5,26.2,214.3,26.2,214,26.2z"/>
		<path class="st10" d="M215.2,25.7l0.6,0.6c0.9-0.9,0.9-2.4,0-3.4l-0.6,0.6C215.8,24.1,215.8,25.1,215.2,25.7z"/>
		<path class="st10" d="M224.1,6.6l0.1-0.8c-0.4,0-0.9,0.1-1.3,0.3l0.4,0.7C223.6,6.6,223.8,6.6,224.1,6.6z"/>
		<path class="st10" d="M222.9,9.3c-0.3-0.3-0.5-0.7-0.5-1.1c0-0.4,0.2-0.8,0.5-1.1l-0.6-0.6c-0.4,0.4-0.7,1-0.7,1.7
			c0,0.6,0.2,1.2,0.7,1.7L222.9,9.3z"/>
	</g>
	<rect x="217.7" y="16.7" transform="matrix(0.7071 -0.7071 0.7071 0.7071 51.8531 159.387)" width="1.3" height="0.8"/>
	<g>
		<path class="st10" d="M211,13.8l-0.1-0.8c-0.3,0-0.6,0-0.8-0.2l-0.4,0.7c0.3,0.2,0.7,0.3,1.1,0.3C210.9,13.8,210.9,13.8,211,13.8z
			"/>
		<path class="st10" d="M209.7,12.5c-0.3-0.3-0.5-0.7-0.5-1.1c0-0.4,0.2-0.8,0.5-1.1l-0.6-0.6c-0.4,0.4-0.7,1-0.7,1.7
			c0,0.6,0.2,1.2,0.7,1.7L209.7,12.5z"/>
		<path class="st10" d="M228.8,21.5l0.8,0.1c0-0.4-0.1-0.9-0.3-1.3l-0.7,0.4C228.8,20.9,228.8,21.2,228.8,21.5z"/>
		<path class="st10" d="M225.6,19.7l0.6,0.6c0.6-0.6,1.6-0.6,2.2,0l0.6-0.6C228,18.8,226.5,18.8,225.6,19.7z"/>
	</g>
</g>
</svg>
