<?xml version="1.0" encoding="utf-8"?>
<!-- Generator: Adobe Illustrator 26.2.1, SVG Export Plug-In . SVG Version: 6.00 Build 0)  -->
<svg version="1.1" id="Layer_1" xmlns="http://www.w3.org/2000/svg" xmlns:xlink="http://www.w3.org/1999/xlink" x="0px" y="0px"
	 viewBox="0 0 1216 232" style="enable-background:new 0 0 1216 232;" xml:space="preserve">
<style type="text/css">
	.st0{fill:none;stroke:url(#SVGID_1_);}
	.st1{fill:#CBD5E1;}
	.st2{fill:#00DC82;}
	.st3{fill:#94A3B8;}
	.st4{font-family:'BradleyHandITCTT-Bold';}
	.st5{font-size:20px;}
	.st6{fill:none;stroke:#94A3B8;stroke-width:0.5;stroke-miterlimit:10;}
	.st7{font-family:'ArialMT';}
	.st8{fill:#898890;}
	.st9{fill:#91DC5A;}
	.st10{fill:#FFFFFF;}
	.st11{fill:#57565C;}
	.st12{fill:#E0E0E2;}
	.st13{fill:#ACABB1;}
</style>
<g>
	
		<linearGradient id="SVGID_1_" gradientUnits="userSpaceOnUse" x1="-108.0024" y1="999.1552" x2="1324.4976" y2="999.1592" gradientTransform="matrix(1 0 0 1 0 -846)">
		<stop  offset="0" style="stop-color:#CBD5E1;stop-opacity:0"/>
		<stop  offset="0.5104" style="stop-color:#CBD5E1"/>
		<stop  offset="1" style="stop-color:#CBD5E1;stop-opacity:0"/>
	</linearGradient>
	<line class="st0" x1="0" y1="153.1" x2="1216" y2="153.1"/>
	<circle class="st1" cx="239" cy="152.6" r="6"/>
	<circle class="st1" cx="485" cy="152.6" r="6"/>
	<circle class="st1" cx="731" cy="152.6" r="6"/>
	<circle class="st1" cx="977" cy="152.6" r="6"/>
	<path class="st2" d="M980.5,119.8h24.2c0.8,0,1.5-0.2,2.2-0.6s1.2-0.9,1.6-1.6c0.4-0.6,0.6-1.4,0.6-2.1s-0.2-1.5-0.6-2.1
		l-16.2-27.3c-0.4-0.6-0.9-1.2-1.6-1.6c-0.7-0.4-1.4-0.6-2.2-0.6s-1.5,0.2-2.2,0.6s-1.2,0.9-1.6,1.6l-4.2,7l-8.1-13.7
		c-0.4-0.6-0.9-1.2-1.6-1.6c-0.7-0.4-1.4-0.6-2.2-0.6s-1.5,0.2-2.2,0.6s-1.2,0.9-1.6,1.6l-20.2,34c-0.4,0.6-0.6,1.4-0.6,2.1
		s0.2,1.5,0.6,2.1c0.4,0.6,0.9,1.2,1.6,1.6c0.7,0.4,1.4,0.6,2.2,0.6h15.2c6,0,10.5-2.6,13.5-7.6l7.4-12.4l4-6.7l11.9,20h-15.9
		L980.5,119.8z M963.3,113.1h-10.6l15.9-26.7l7.9,13.3l-5.3,8.9C969.2,112,966.9,113.1,963.3,113.1z"/>
	<text transform="matrix(1 0 0 1 462.0454 190.2416)" class="st3 st4 st5">2023</text>
	<text transform="matrix(1 0 0 1 462.0454 190.2416)" class="st6 st4 st5">2023</text>
	<text transform="matrix(1 0 0 1 218.7334 191.3266)" class="st3 st4 st5">past</text>
	<text transform="matrix(1 0 0 1 218.7334 191.3266)" class="st6 st4 st5">past</text>
	<text transform="matrix(1 0 0 1 254.5334 191.3266)" class="st3 st7 st5">...</text>
	<text transform="matrix(1 0 0 1 254.5334 191.3266)" class="st6 st7 st5">...</text>
	<text transform="matrix(1 0 0 1 710.0603 190.2412)" class="st3 st4 st5">2024</text>
	<text transform="matrix(1 0 0 1 710.0603 190.2412)" class="st6 st4 st5">2024</text>
	<text transform="matrix(1 0 0 1 943.6602 191.3266)" class="st3 st4 st5">coming</text>
	<text transform="matrix(1 0 0 1 943.6602 191.3266)" class="st6 st4 st5">coming</text>
	<text transform="matrix(1 0 0 1 1010.76 191.3266)" class="st3 st7 st5">...</text>
	<text transform="matrix(1 0 0 1 1010.76 191.3266)" class="st6 st7 st5">...</text>
	<g>
		<path class="st8" d="M475.2,114.6h4.7v1.6h-17.7v2.6h48v-2.6h-17.8v-1.6h4.8l5.4-5.3V85.7c0-9.1-7.4-16.4-16.4-16.4
			c-9.1,0-16.4,7.4-16.4,16.4v23.5L475.2,114.6z"/>
		<polygon class="st9" points="509.4,114.6 509.4,111 506.2,114.1 506.2,111 503.1,114.1 503.1,110.9 499.4,114.6 		"/>
		<polygon class="st10" points="485.3,93.2 486.8,93.2 486.8,86.2 490.2,86.2 490.2,84.7 486.8,84.7 486.8,81.7 485.3,81.7 
			485.3,84.7 482.2,84.7 482.2,86.2 485.3,86.2 		"/>
		<polygon class="st9" points="469.3,110.9 469.3,114.1 466.2,111 466.2,114.1 463.1,111 463.1,114.6 473,114.6 		"/>
		<path class="st10" d="M486.2,104.1c-2.4,0-4.4,2-4.4,4.4c0,1.3,0.6,2.5,1.6,3.4l0.3,0.2v2.4h0.7V113h1.6v1.5h0.6V113h1.6v1.5h0.6
			v-2.4l0.3-0.2c1-0.8,1.6-2.1,1.6-3.4C490.6,106.1,488.6,104.1,486.2,104.1z M482.8,109.1c0-0.9,0.7-1.6,1.6-1.6s1.6,0.7,1.6,1.6
			s-0.7,1.6-1.6,1.6C483.5,110.6,482.8,109.9,482.8,109.1z M485.5,111.5l0.7-0.7l0.7,0.7H485.5z M488,110.6c-0.9,0-1.6-0.7-1.6-1.6
			s0.7-1.6,1.6-1.6s1.6,0.7,1.6,1.6S488.9,110.6,488,110.6z"/>
		<rect x="462.2" y="116.1" class="st11" width="48" height="2.6"/>
		<path d="M471.3,100.5l5.2-3.2l-1.5-3.1l1.7-1.5l-1-1.2l-2.6,2.3l1.4,2.9l-3.2,2v-13c0-3.7,1.4-7.2,3.7-9.8l2.3,1.9l-0.8,2.5
			l1.8,2.3l1.2-1l-1.3-1.7l0.5-1.7h2.8v-1.6h-3.1l-2.4-2c2.6-2.4,6.2-3.9,10.1-3.9c5.6,0,10.5,3.1,13.1,7.8l-4.4,4.4l0.9,3.5
			l-2.5,1.6l0.9,1.3l2.1-1.4l0.6,2.3l1.5-0.4l-1.7-6.5l3.4-3.4c0.7,1.7,1.1,3.6,1.1,5.6v22.1h1.6V85.7c0-9.1-7.4-16.4-16.4-16.4
			c-9.1,0-16.4,7.4-16.4,16.4v22.1h1.6L471.3,100.5L471.3,100.5z"/>
		<polygon points="499.4,114.6 503.1,110.9 503.1,114.1 506.2,111 506.2,114.1 509.4,111 509.4,113.3 510.9,113.3 510.9,107.2 
			507.8,110.3 507.8,107.2 504.7,110.3 504.7,107.2 497.2,114.6 492.4,114.6 492.4,116.1 510.2,116.1 510.2,118.8 462.2,118.8 
			462.2,116.1 480,116.1 480,114.6 475.2,114.6 467.8,107.2 467.8,110.3 464.6,107.2 464.6,110.3 461.5,107.2 461.5,113.3 
			463.1,113.3 463.1,111 466.2,114.1 466.2,111 469.3,114.1 469.3,110.9 473,114.6 460.7,114.6 460.7,120.3 511.7,120.3 
			511.7,114.6 		"/>
		<path d="M490.3,116.1v-3.2c1.2-1.1,1.9-2.7,1.9-4.4c0-3.3-2.7-6-6-6s-6,2.7-6,6c0,1.6,0.7,3.2,1.8,4.3v3.3L490.3,116.1
			L490.3,116.1z M481.8,108.5c0-2.4,2-4.4,4.4-4.4s4.4,2,4.4,4.4c0,1.3-0.6,2.6-1.6,3.4l-0.3,0.2v2.4h-0.6V113h-1.6v1.5h-0.6V113
			h-1.6v1.5h-0.7v-2.4l-0.3-0.2C482.3,111.1,481.8,109.8,481.8,108.5z"/>
		<circle cx="484.4" cy="109.1" r="1.6"/>
		<circle cx="488" cy="109.1" r="1.6"/>
		<polygon points="486.9,111.5 486.2,110.7 485.5,111.5 		"/>
		<path d="M483.7,80.2v2.9h-3v4.7h3v7h4.7v-7h3.3v-4.7h-3.3v-2.9H483.7L483.7,80.2z M490.2,84.7v1.6h-3.3v7h-1.6v-7h-3v-1.6h3v-2.9
			h1.6v2.9H490.2L490.2,84.7z"/>
		<rect x="481" y="99.4" width="10.4" height="1.6"/>
		<rect x="483.3" y="96.8" width="9.4" height="1.6"/>
		<rect x="479.6" y="96.8" width="2.6" height="1.6"/>
	</g>
	<text transform="matrix(1 0 0 1 447.2578 48.1223)" class="st3 st4 st5">VuePress</text>
	<text transform="matrix(1 0 0 1 447.2578 48.1223)" class="st6 st4 st5">VuePress</text>
	<text transform="matrix(1 0 0 1 220.3603 90.3877)" class="st3 st4 st5">Hugo</text>
	<text transform="matrix(1 0 0 1 220.3603 90.3877)" class="st6 st4 st5">Hugo</text>
	<text transform="matrix(1 0 0 1 198.2509 120.5295)" class="st3 st4 st5">WordPress</text>
	<text transform="matrix(1 0 0 1 198.2509 120.5295)" class="st6 st4 st5">WordPress</text>
	<g>
		<path class="st12" d="M755.7,99.6c3.3,3.3,3.3,8.6,0,11.9c-1.3,1.3-3.1,2.2-4.9,2.4c-0.2,1.9-1.1,3.6-2.5,5
			c-1.6,1.6-3.7,2.4-5.9,2.4c-4.6,0-8.4-3.8-8.4-8.4c0-2.2,0.9-4.3,2.4-5.9c0.3-0.3,0.6-0.6,1-0.8l-2.8-2.8l0,0l-3.6-3.6l-6.3,6.3
			c0.3,0.2,0.6,0.5,0.9,0.8c3.3,3.3,3.3,8.6,0,11.9c-1.6,1.6-3.8,2.5-5.9,2.5c-2.2,0-4.3-0.8-5.9-2.5c-1.3-1.3-2.2-3.1-2.4-4.9
			c-1.9-0.2-3.6-1.1-5-2.5c-1.6-1.6-2.4-3.7-2.4-5.9c0-4.6,3.8-8.4,8.4-8.4c2.2,0,4.3,0.9,5.9,2.4c0.3,0.3,0.6,0.7,0.9,1.1l2.8-2.8
			l0,0l3.6-3.6l-6.4-6.4c-0.2,0.3-0.5,0.6-0.8,0.9c-1.6,1.6-3.8,2.5-5.9,2.5s-4.3-0.8-5.9-2.5c-3.3-3.3-3.3-8.6,0-11.9
			c1.3-1.3,3.1-2.2,4.9-2.4c0.2-1.9,1.1-3.6,2.5-5c1.6-1.6,3.7-2.4,5.9-2.4c4.6,0,8.4,3.8,8.4,8.4c0,2.2-0.9,4.3-2.4,5.9
			c-0.3,0.3-0.7,0.6-1.1,0.9l4.7,4.7l0,0l1.7,1.7l6.4-6.4c-0.4-0.3-0.7-0.5-1-0.9c-3.3-3.3-3.3-8.6,0-11.9s8.6-3.3,11.9,0
			c1.3,1.3,2.2,3.1,2.4,4.9c1.9,0.2,3.6,1.1,5,2.5c1.6,1.6,2.4,3.7,2.4,5.9c0,4.6-3.8,8.4-8.4,8.4c-2.2,0-4.3-0.9-5.9-2.4
			c-0.3-0.3-0.6-0.6-0.8-1l-6.4,6.4l6.4,6.4c0.3-0.4,0.5-0.7,0.9-1C747.1,96.4,752.5,96.4,755.7,99.6z"/>
		<g>
			<path class="st13" d="M729.4,87l1.7,1.7l0,0l-5.6,5.6l-6.4-6.4c-0.2,0.3-0.5,0.6-0.8,0.9c-1.6,1.6-3.8,2.5-5.9,2.5
				s-4.3-0.8-5.9-2.5c-3.3-3.3-3.3-8.6,0-11.9c1.3-1.3,3.1-2.2,4.9-2.4c0.2-1.9,1.1-3.6,2.5-5c1.6-1.6,3.7-2.4,5.9-2.4
				c4.6,0,8.4,3.8,8.4,8.4c0,2.2-0.9,4.3-2.4,5.9c-0.3,0.3-0.7,0.6-1.1,0.9L729.4,87L729.4,87z"/>
			<path class="st13" d="M755.7,111.5c-1.3,1.3-3.1,2.2-4.9,2.4c-0.2,1.9-1.1,3.6-2.5,5c-1.6,1.6-3.7,2.4-5.9,2.4
				c-4.6,0-8.4-3.8-8.4-8.4c0-2.2,0.9-4.3,2.4-5.9c0.3-0.3,0.6-0.6,1-0.8l-2.8-2.8l0,0l-3.6-3.5l5.6-5.6l6.3,6.3
				c0.3-0.4,0.5-0.7,0.9-1c3.3-3.3,8.6-3.3,11.9,0S759,108.2,755.7,111.5z"/>
		</g>
		<path d="M712.4,91.2c2.2,0,4.3-0.8,5.9-2.5c0.3-0.3,0.6-0.6,0.8-0.9l6.4,6.4l-1.9,1.9l1.3,1.3l14.2-14.2c0.4,0.2,0.8,0.3,1.2,0.4
			l-9.6,9.6l1.3,1.3l9.6-9.6c0.1,0.5,0.3,0.9,0.5,1.3l-3.1,3.1l1.3,1.3l2.8-2.8c0.3,0.3,0.5,0.7,0.8,1c1.6,1.6,3.7,2.4,5.9,2.4
			c4.6,0,8.4-3.8,8.4-8.4c0-2.2-0.9-4.3-2.4-5.9c-1.4-1.4-3.1-2.2-5-2.5c-0.2-1.9-1-3.6-2.4-4.9c-3.3-3.3-8.6-3.3-11.9,0
			c-3.3,3.3-3.3,8.6,0,11.9c0.3,0.3,0.7,0.6,1,0.9l-6.4,6.4l-2-2l-1.3,1.3l2,2l-3,3l-6.8-6.8c0.2-0.4,0.3-0.9,0.5-1.3l5.6,5.6
			l1.3-1.3l-5.6-5.6c0.4-0.1,0.8-0.2,1.2-0.4l3.1,3.1l1.3-1.3l-2.8-2.8c0.4-0.3,0.7-0.6,1.1-0.9c1.6-1.6,2.4-3.7,2.4-5.9
			c0-4.6-3.8-8.4-8.4-8.4c-2.2,0-4.3,0.9-5.9,2.4c-1.4,1.4-2.2,3.1-2.5,5c-1.9,0.2-3.6,1-4.9,2.4c-3.3,3.3-3.3,8.6,0,11.9
			C708.1,90.4,710.2,91.2,712.4,91.2z M737.8,70.8c2.6-2.6,6.7-2.6,9.3,0c2.6,2.6,2.6,6.7,0,9.3l1.3,1.3c1.4-1.4,2.2-3.2,2.4-5.1
			c1.4,0.2,2.7,0.9,3.7,1.9c1.2,1.2,1.9,2.9,1.9,4.6c0,3.6-3,6.6-6.6,6.6c-1.7,0-3.4-0.7-4.6-1.9c-1-1-1.7-2.3-1.9-3.7
			c0.2,0,0.5-0.1,0.7-0.1l-0.3-1.8c-2.1,0.4-4.3-0.3-5.9-1.8C735.2,77.6,735.2,73.4,737.8,70.8z M707.7,78.2c2.6-2.6,6.7-2.6,9.3,0
			l1.3-1.3c-1.4-1.4-3.2-2.2-5.1-2.4c0.2-1.4,0.9-2.7,1.9-3.7c1.2-1.2,2.9-1.9,4.6-1.9c3.6,0,6.6,3,6.6,6.6c0,1.7-0.7,3.4-1.9,4.6
			c-0.3,0.3-1.3,1-1.3,1c-0.7,0.5-1.6,0.8-2.4,0.9c0-0.2-0.1-0.5-0.1-0.7l-1.8,0.3c0.3,1.6,0,3.3-0.9,4.7c0,0-0.7,0.9-1,1.2
			c-2.6,2.6-6.7,2.6-9.3,0C705.2,84.9,705.2,80.8,707.7,78.2z"/>
		<path d="M743.9,99.6c-0.3,0.3-0.6,0.7-0.9,1l-6.4-6.4l2.1-2.1l-1.3-1.3l-14.3,14.4c-0.8-0.3-1.6-0.6-2.4-0.7
			c-0.1-0.8-0.3-1.6-0.6-2.3l3.1-3.1l-1.3-1.3l-2.8,2.8c-0.3-0.4-0.6-0.7-0.9-1.1c-1.6-1.6-3.7-2.4-5.9-2.4c-4.6,0-8.4,3.8-8.4,8.4
			c0,2.2,0.9,4.3,2.4,5.9c1.4,1.4,3.1,2.2,5,2.5c0.2,1.9,1,3.6,2.4,4.9c1.6,1.6,3.8,2.5,5.9,2.5c2.2,0,4.3-0.8,5.9-2.5
			c3.3-3.3,3.3-8.6,0-11.9c-0.3-0.3-0.6-0.6-0.9-0.8l6.3-6.3l2,2l1.3-1.3l-2-2l3-3l6.7,6.7c-0.3,0.7-0.5,1.5-0.6,2.3
			c-0.8,0.1-1.7,0.3-2.4,0.7l-3.1-3.1l-1.3,1.3l2.8,2.8c-0.3,0.3-0.7,0.5-1,0.8c-1.6,1.6-2.4,3.7-2.4,5.9c0,4.6,3.8,8.4,8.4,8.4
			c2.2,0,4.3-0.9,5.9-2.4c1.4-1.4,2.2-3.1,2.5-5c1.9-0.2,3.6-1,4.9-2.4c3.3-3.3,3.3-8.6,0-11.9C752.5,96.4,747.1,96.4,743.9,99.6z
			 M724.4,108.3c2.6,2.6,2.6,6.7,0,9.3c-2.6,2.6-6.7,2.6-9.3,0s-2.6-6.7,0-9.3l-1.3-1.3c-1.4,1.4-2.2,3.2-2.4,5.1
			c-1.4-0.2-2.7-0.9-3.7-1.9c-1.2-1.2-1.9-2.9-1.9-4.6c0-3.6,3-6.6,6.6-6.6c1.7,0,3.4,0.7,4.6,1.9c0.3,0.3,1,1.3,1,1.3
			c0.5,0.7,0.8,1.6,0.9,2.4c-0.2,0-0.5,0.1-0.7,0.1l0.3,1.8c1.6-0.3,3.3,0,4.7,0.9C723.2,107.3,724.1,108,724.4,108.3z M754.5,110.2
			c-2.6,2.6-6.7,2.6-9.3,0l-1.3,1.3c1.4,1.4,3.2,2.2,5.1,2.4c-0.2,1.4-0.9,2.7-1.9,3.7c-1.2,1.2-2.9,1.9-4.6,1.9
			c-3.6,0-6.6-3-6.6-6.6c0-1.7,0.7-3.4,1.9-4.6c1-1,2.3-1.7,3.7-1.9c0,0.2,0.1,0.5,0.1,0.7l1.8-0.3c-0.4-2.1,0.3-4.3,1.8-5.9
			c2.6-2.6,6.7-2.6,9.3,0C757,103.5,757,107.7,754.5,110.2z"/>
		<g>
			<path class="st10" d="M719.6,116.5l-0.1,1.8c0.1,0,0.3,0,0.4,0c0.9,0,1.7-0.2,2.5-0.6l-0.8-1.6
				C720.9,116.4,720.2,116.6,719.6,116.5z"/>
			<path class="st10" d="M722.4,115.5l1.3,1.3c2.1-2.1,2.1-5.5,0-7.6l-1.3,1.3C723.8,111.8,723.8,114.1,722.4,115.5z"/>
			<path class="st10" d="M742.7,71.9l0.1-1.8c-1-0.1-2,0.1-2.9,0.6l0.8,1.6C741.4,72,742.1,71.9,742.7,71.9z"/>
			<path class="st10" d="M739.9,78c-0.7-0.7-1.1-1.6-1.1-2.5c0-1,0.4-1.9,1.1-2.5l-1.3-1.3c-1,1-1.6,2.4-1.6,3.8s0.6,2.8,1.6,3.8
				L739.9,78z"/>
		</g>
		<rect x="727.9" y="94.9" transform="matrix(0.7071 -0.7071 0.7071 0.7071 145.8799 543.8702)" width="3" height="1.8"/>
		<g>
			<path class="st10" d="M712.8,88.2l-0.1-1.8c-0.7,0.1-1.3-0.1-1.9-0.4l-0.8,1.6c0.8,0.4,1.6,0.6,2.5,0.6
				C712.5,88.2,712.7,88.2,712.8,88.2z"/>
			<path class="st10" d="M709.8,85.4c-0.7-0.7-1.1-1.6-1.1-2.5c0-1,0.4-1.9,1.1-2.5l-1.3-1.3c-1,1-1.6,2.4-1.6,3.8s0.6,2.8,1.6,3.8
				L709.8,85.4z"/>
			<path class="st10" d="M753.4,105.9l1.8,0.1c0.1-1-0.1-2-0.6-2.9l-1.6,0.8C753.3,104.5,753.4,105.2,753.4,105.9z"/>
			<path class="st10" d="M746,101.8l1.3,1.3c1.4-1.4,3.7-1.4,5.1,0l1.3-1.3C751.5,99.7,748.1,99.7,746,101.8z"/>
		</g>
	</g>
	<text transform="matrix(1 0 0 1 708.7188 48.1228)" class="st3 st4 st5">Nuxt</text>
	<text transform="matrix(1 0 0 1 708.7188 48.1228)" class="st6 st4 st5">Nuxt</text>
</g>
</svg>
