<?xml version="1.0" encoding="utf-8"?>
<!-- Generator: Adobe Illustrator 26.2.1, SVG Export Plug-In . SVG Version: 6.00 Build 0)  -->
<svg version="1.1" id="Layer_1" xmlns="http://www.w3.org/2000/svg" xmlns:xlink="http://www.w3.org/1999/xlink" x="0px" y="0px"
	 viewBox="0 0 342 69" style="enable-background:new 0 0 342 69;" xml:space="preserve">
<style type="text/css">
	.st0{fill:none;stroke:url(#SVGID_1_);}
	.st1{fill:#CBD5E1;}
	.st2{fill:#00DC82;}
	.st3{fill:#94A3B8;}
	.st4{font-family:'BradleyHandITCTT-Bold';}
	.st5{font-size:12px;}
	.st6{fill:none;stroke:#94A3B8;stroke-width:0.5;stroke-miterlimit:10;}
	.st7{fill:#898890;}
	.st8{fill:#91DC5A;}
	.st9{fill:#FFFFFF;}
	.st10{fill:#57565C;}
	.st11{font-size:8px;}
	.st12{fill:#E0E0E2;}
	.st13{fill:#ACABB1;}
</style>
<linearGradient id="SVGID_1_" gradientUnits="userSpaceOnUse" x1="-30.3758" y1="1050.506" x2="372.5152" y2="1050.5062" gradientTransform="matrix(1 0 0 1 0 -1010)">
	<stop  offset="0" style="stop-color:#CBD5E1;stop-opacity:0"/>
	<stop  offset="0.5104" style="stop-color:#CBD5E1"/>
	<stop  offset="1" style="stop-color:#CBD5E1;stop-opacity:0"/>
</linearGradient>
<line class="st0" x1="0" y1="40.5" x2="342" y2="40.5"/>
<circle class="st1" cx="23.2" cy="41" r="3"/>
<circle class="st1" cx="121.2" cy="41" r="3"/>
<circle class="st1" cx="219.2" cy="41" r="3"/>
<circle class="st1" cx="317.2" cy="41" r="3"/>
<path class="st2" d="M320.7,28.6h13.2c0.4,0,0.8-0.1,1.2-0.3c0.4-0.2,0.7-0.5,0.9-0.8c0.2-0.4,0.3-0.8,0.3-1.2
	c0-0.4-0.1-0.8-0.3-1.2l-8.9-14.9c-0.2-0.4-0.5-0.6-0.9-0.8s-0.8-0.3-1.2-0.3s-0.8,0.1-1.2,0.3c-0.4,0.2-0.7,0.5-0.9,0.8l-2.3,3.8
	l-4.4-7.4c-0.2-0.4-0.5-0.6-0.9-0.8c-0.4-0.2-0.8-0.3-1.2-0.3s-0.8,0.1-1.2,0.3c-0.4,0.2-0.7,0.5-0.9,0.8l-11,18.5
	c-0.2,0.4-0.3,0.8-0.3,1.2c0,0.4,0.1,0.8,0.3,1.2c0.2,0.4,0.5,0.6,0.9,0.8c0.4,0.2,0.8,0.3,1.2,0.3h8.3c3.3,0,5.7-1.4,7.4-4.1l4-6.8
	l2.2-3.6l6.5,10.9h-8.7L320.7,28.6z M311.4,24.9h-5.8l8.7-14.6l4.3,7.3l-2.9,4.9C314.6,24.3,313.3,24.9,311.4,24.9z"/>
<text transform="matrix(1 0 0 1 12.8996 63.1781)" class="st3 st4 st5">past...</text>
<text transform="matrix(1 0 0 1 12.8996 63.1781)" class="st6 st4 st5">past...</text>
<g>
	<text transform="matrix(1 0 0 1 108.852 64.1697)" class="st3 st4 st5">2023</text>
	<text transform="matrix(1 0 0 1 108.852 64.1697)" class="st6 st4 st5">2023</text>
</g>
<g>
	<text transform="matrix(1 0 0 1 207.2028 64.5371)" class="st3 st4 st5">2024</text>
	<text transform="matrix(1 0 0 1 207.2028 64.5371)" class="st6 st4 st5">2024</text>
</g>
<g>
	<text transform="matrix(1 0 0 1 286.2778 64.3785)" class="st3 st4 st5">Coming...</text>
	<text transform="matrix(1 0 0 1 286.2778 64.3785)" class="st6 st4 st5">Coming...</text>
</g>
<g>
	<text transform="matrix(1 0 0 1 16.8342 13.7363)" class="st3 st4 st5">Hugo</text>
	<text transform="matrix(1 0 0 1 16.8342 13.7363)" class="st6 st4 st5">Hugo</text>
</g>
<g>
	<text transform="matrix(1 0 0 1 3.5679 28.9993)" class="st3 st4 st5">WordPress</text>
	<text transform="matrix(1 0 0 1 3.5679 28.9993)" class="st6 st4 st5">WordPress</text>
</g>
<g>
	<path class="st7" d="M115.9,25.5h2.3v0.8h-8.6v1.3h23.2v-1.3h-8.6v-0.8h2.3l2.6-2.6V11.4c0-4.4-3.6-8-8-8s-8,3.6-8,8v11.4
		L115.9,25.5z"/>
	<polygon class="st8" points="132.5,25.5 132.5,23.7 131,25.2 131,23.7 129.4,25.2 129.4,23.7 127.7,25.5 	"/>
	<polygon class="st9" points="120.8,15.1 121.6,15.1 121.6,11.7 123.2,11.7 123.2,11 121.6,11 121.6,9.5 120.8,9.5 120.8,11 
		119.3,11 119.3,11.7 120.8,11.7 	"/>
	<polygon class="st8" points="113.1,23.7 113.1,25.2 111.6,23.7 111.6,25.2 110,23.7 110,25.5 114.9,25.5 	"/>
	<path class="st9" d="M121.3,20.4c-1.2,0-2.1,1-2.1,2.1c0,0.6,0.3,1.2,0.8,1.6l0.1,0.1v1.2h0.4v-0.7h0.8v0.7h0.3v-0.7h0.8v0.7h0.3
		v-1.1l0.1-0.1c0.5-0.4,0.8-1,0.8-1.7C123.4,21.3,122.4,20.4,121.3,20.4z M119.6,22.8c0-0.4,0.3-0.8,0.8-0.8s0.8,0.3,0.8,0.8
		c0,0.4-0.3,0.8-0.8,0.8S119.6,23.2,119.6,22.8z M120.9,23.9l0.4-0.4l0.4,0.4H120.9z M122.1,23.5c-0.4,0-0.8-0.3-0.8-0.8
		c0-0.4,0.3-0.8,0.8-0.8c0.4,0,0.8,0.3,0.8,0.8S122.6,23.5,122.1,23.5z"/>
	<rect x="109.6" y="26.2" class="st10" width="23.2" height="1.3"/>
	<path d="M114,18.6l2.5-1.6l-0.7-1.5l0.8-0.7l-0.5-0.6l-1.3,1.1l0.7,1.4l-1.5,1v-6.3c0-1.8,0.7-3.5,1.8-4.7l1.1,0.9l-0.4,1.2
		l0.9,1.1l0.6-0.5l-0.6-0.8l0.3-0.8h1.3V7.1h-1.5l-1.1-0.9c1.3-1.2,3-1.9,4.9-1.9c2.7,0,5.1,1.5,6.3,3.8l-2.2,2.2l0.4,1.7l-1.2,0.8
		l0.4,0.6l1-0.7l0.3,1.1l0.7-0.2l-0.8-3.1l1.7-1.7c0.3,0.8,0.5,1.7,0.5,2.7v10.7h0.8V11.4c0-4.4-3.6-8-8-8s-8,3.6-8,8v10.7h0.8
		L114,18.6L114,18.6z"/>
	<polygon points="127.7,25.5 129.4,23.7 129.4,25.2 131,23.7 131,25.2 132.5,23.7 132.5,24.9 133.2,24.9 133.2,21.9 131.7,23.4 
		131.7,21.9 130.2,23.4 130.2,21.9 126.6,25.5 124.2,25.5 124.2,26.2 132.9,26.2 132.9,27.5 109.6,27.5 109.6,26.2 118.2,26.2 
		118.2,25.5 115.9,25.5 112.3,21.9 112.3,23.4 110.8,21.9 110.8,23.4 109.3,21.9 109.3,24.9 110,24.9 110,23.7 111.6,25.2 
		111.6,23.7 113.1,25.2 113.1,23.7 114.9,25.5 108.9,25.5 108.9,28.2 133.6,28.2 133.6,25.5 	"/>
	<path d="M123.2,26.2v-1.6c0.6-0.5,0.9-1.3,0.9-2.1c0-1.6-1.3-2.9-2.9-2.9s-2.9,1.3-2.9,2.9c0,0.8,0.3,1.5,0.9,2.1v1.6H123.2
		L123.2,26.2z M119.1,22.5c0-1.2,1-2.1,2.1-2.1c1.2,0,2.1,1,2.1,2.1c0,0.6-0.3,1.3-0.8,1.7l-0.1,0.1v1.1h-0.3v-0.7h-0.8v0.7H121
		v-0.7h-0.8v0.7H120v-1.2l-0.1-0.1C119.4,23.8,119.1,23.2,119.1,22.5z"/>
	<circle cx="120.4" cy="22.8" r="0.8"/>
	<circle cx="122.1" cy="22.8" r="0.8"/>
	<polygon points="121.6,23.9 121.3,23.6 120.9,23.9 	"/>
	<path d="M120,8.8v1.4h-1.5v2.3h1.5v3.4h2.3v-3.4h1.6v-2.3h-1.6V8.8H120L120,8.8z M123.2,11v0.8h-1.6v3.4h-0.8v-3.4h-1.5V11h1.5V9.5
		h0.8V11H123.2L123.2,11z"/>
	<rect x="118.7" y="18.1" width="5.1" height="0.8"/>
	<rect x="119.8" y="16.8" width="4.5" height="0.8"/>
	<rect x="118.1" y="16.8" width="1.3" height="0.8"/>
</g>
<g>
	<text transform="matrix(1 0 0 1 106.2177 34.3434)" class="st3 st4 st11">Vuepress</text>
	<text transform="matrix(1 0 0 1 106.2177 34.3434)" class="st6 st4 st11">Vuepress</text>
</g>
<g>
	<path class="st12" d="M229.6,19.2c1.4,1.4,1.4,3.7,0,5.1c-0.6,0.6-1.3,0.9-2.1,1c-0.1,0.8-0.5,1.6-1.1,2.2c-0.7,0.7-1.6,1-2.5,1
		c-2,0-3.6-1.6-3.6-3.6c0-1,0.4-1.9,1-2.5c0.1-0.1,0.3-0.3,0.4-0.4l-1.2-1.2l0,0l-1.6-1.5l-2.7,2.7c0.1,0.1,0.3,0.2,0.4,0.3
		c1.4,1.4,1.4,3.7,0,5.1c-0.7,0.7-1.6,1.1-2.6,1.1c-0.9,0-1.9-0.4-2.6-1.1c-0.6-0.6-0.9-1.3-1-2.1c-0.8-0.1-1.6-0.5-2.2-1.1
		c-0.7-0.7-1-1.6-1-2.5c0-2,1.6-3.6,3.6-3.6c1,0,1.9,0.4,2.5,1c0.1,0.1,0.3,0.3,0.4,0.5l1.2-1.2l0,0l1.5-1.5l-2.8-2.8
		c-0.1,0.1-0.2,0.3-0.3,0.4c-0.7,0.7-1.6,1.1-2.6,1.1s-1.9-0.4-2.6-1.1c-1.4-1.4-1.4-3.7,0-5.1c0.6-0.6,1.3-0.9,2.1-1
		c0.1-0.8,0.5-1.6,1.1-2.2c0.7-0.7,1.6-1,2.5-1c2,0,3.6,1.6,3.6,3.6c0,1-0.4,1.9-1,2.5c-0.1,0.1-0.3,0.3-0.5,0.4l2,2l0,0l0.7,0.7
		l2.8-2.8c-0.2-0.1-0.3-0.2-0.4-0.4c-1.4-1.4-1.4-3.7,0-5.1s3.7-1.4,5.1,0c0.6,0.6,0.9,1.3,1,2.1c0.8,0.1,1.6,0.5,2.2,1.1
		c0.7,0.7,1,1.6,1,2.5c0,2-1.6,3.6-3.6,3.6c-1,0-1.9-0.4-2.5-1c-0.1-0.1-0.3-0.3-0.4-0.4l-2.8,2.8l2.7,2.7c0.1-0.2,0.2-0.3,0.4-0.4
		C225.9,17.8,228.2,17.8,229.6,19.2z"/>
	<g>
		<path class="st13" d="M218.3,13.8l0.7,0.7l0,0l-2.4,2.4l-2.8-2.8c-0.1,0.1-0.2,0.3-0.3,0.4c-0.7,0.7-1.6,1.1-2.6,1.1
			c-0.9,0-1.9-0.4-2.6-1.1c-1.4-1.4-1.4-3.7,0-5.1c0.6-0.6,1.3-0.9,2.1-1c0.1-0.8,0.5-1.6,1.1-2.2c0.7-0.7,1.6-1,2.5-1
			c2,0,3.6,1.6,3.6,3.6c0,1-0.4,1.9-1,2.5c-0.1,0.1-0.3,0.3-0.5,0.4L218.3,13.8L218.3,13.8z"/>
		<path class="st13" d="M229.6,24.3c-0.6,0.6-1.3,0.9-2.1,1c-0.1,0.8-0.5,1.6-1.1,2.2c-0.7,0.7-1.6,1-2.5,1c-2,0-3.6-1.6-3.6-3.6
			c0-1,0.4-1.9,1-2.5c0.1-0.1,0.3-0.3,0.4-0.4l-1.2-1.2l0,0l-1.5-1.5l2.4-2.4l2.7,2.7c0.1-0.2,0.2-0.3,0.4-0.4
			c1.4-1.4,3.7-1.4,5.1,0C231,20.6,231,22.9,229.6,24.3z"/>
	</g>
	<path d="M210.9,15.6c0.9,0,1.9-0.4,2.6-1.1c0.1-0.1,0.2-0.3,0.3-0.4l2.8,2.8l-0.8,0.8l0.6,0.6l6.1-6.1c0.2,0.1,0.3,0.1,0.5,0.2
		l-4.1,4.1l0.6,0.6l4.1-4.1c0,0.2,0.1,0.4,0.2,0.6l-1.3,1.3l0.6,0.6l1.2-1.2c0.1,0.1,0.2,0.3,0.4,0.4c0.7,0.7,1.6,1,2.5,1
		c2,0,3.6-1.6,3.6-3.6c0-1-0.4-1.9-1-2.5s-1.3-1-2.2-1.1c-0.1-0.8-0.5-1.5-1-2.1c-1.4-1.4-3.7-1.4-5.1,0c-1.4,1.4-1.4,3.7,0,5.1
		c0.1,0.1,0.3,0.3,0.4,0.4l-2.8,2.8l-0.8-0.8l-0.6,0.6l0.8,0.8l-1.3,1.3l-2.9-2.9c0.1-0.2,0.1-0.4,0.2-0.6l2.4,2.4l0.6-0.6l-2.4-2.4
		c0.2,0,0.4-0.1,0.5-0.2l1.3,1.3l0.6-0.6l-1.2-1.2c0.2-0.1,0.3-0.2,0.5-0.4c0.7-0.7,1-1.6,1-2.5c0-2-1.6-3.6-3.6-3.6
		c-1,0-1.9,0.4-2.5,1s-1,1.3-1.1,2.2c-0.8,0.1-1.5,0.5-2.1,1c-1.4,1.4-1.4,3.7,0,5.1C209.1,15.2,210,15.6,210.9,15.6z M221.9,6.8
		c1.1-1.1,2.9-1.1,4,0s1.1,2.9,0,4l0.6,0.6c0.6-0.6,1-1.4,1-2.2c0.6,0.1,1.2,0.4,1.6,0.8c0.5,0.5,0.8,1.2,0.8,2
		c0,1.6-1.3,2.8-2.8,2.8c-0.7,0-1.5-0.3-2-0.8c-0.4-0.4-0.7-1-0.8-1.6c0.1,0,0.2,0,0.3,0l-0.1-0.8c-0.9,0.2-1.9-0.1-2.5-0.8
		C220.8,9.7,220.8,7.9,221.9,6.8z M208.9,10c1.1-1.1,2.9-1.1,4,0l0.6-0.6c-0.6-0.6-1.4-1-2.2-1c0.1-0.6,0.4-1.2,0.8-1.6
		c0.5-0.5,1.2-0.8,2-0.8c1.6,0,2.8,1.3,2.8,2.8c0,0.7-0.3,1.5-0.8,2c-0.1,0.1-0.5,0.4-0.5,0.4c-0.3,0.2-0.7,0.3-1,0.4
		c0-0.1,0-0.2,0-0.3l-0.8,0.1c0.1,0.7,0,1.4-0.4,2c0,0-0.3,0.4-0.4,0.5c-1.1,1.1-2.9,1.1-4,0C207.8,12.9,207.8,11.1,208.9,10z"/>
	<path d="M224.5,19.2c-0.1,0.1-0.3,0.3-0.4,0.4l-2.7-2.7l0.9-0.9l-0.6-0.6l-6.2,6.2c-0.3-0.1-0.7-0.2-1-0.3c0-0.3-0.1-0.7-0.3-1
		l1.3-1.3l-0.6-0.6l-1.2,1.2c-0.1-0.2-0.2-0.3-0.4-0.5c-0.7-0.7-1.6-1-2.5-1c-2,0-3.6,1.6-3.6,3.6c0,1,0.4,1.9,1,2.5s1.3,1,2.2,1.1
		c0.1,0.8,0.5,1.5,1,2.1c0.7,0.7,1.6,1.1,2.6,1.1s1.9-0.4,2.6-1.1c1.4-1.4,1.4-3.7,0-5.1c-0.1-0.1-0.3-0.2-0.4-0.3l2.7-2.7l0.8,0.8
		l0.6-0.6l-0.8-0.8l1.3-1.3l2.9,2.9c-0.1,0.3-0.2,0.6-0.3,1c-0.4,0-0.7,0.1-1,0.3l-1.3-1.3l-0.6,0.6l1.2,1.2
		c-0.1,0.1-0.3,0.2-0.4,0.4c-0.7,0.7-1,1.6-1,2.5c0,2,1.6,3.6,3.6,3.6c1,0,1.9-0.4,2.5-1s1-1.3,1.1-2.2c0.8-0.1,1.5-0.5,2.1-1
		c1.4-1.4,1.4-3.7,0-5.1C228.2,17.8,225.9,17.8,224.5,19.2z M216.1,22.9c1.1,1.1,1.1,2.9,0,4s-2.9,1.1-4,0s-1.1-2.9,0-4l-0.6-0.6
		c-0.6,0.6-1,1.4-1,2.2c-0.6-0.1-1.2-0.4-1.6-0.8c-0.5-0.5-0.8-1.2-0.8-2c0-1.6,1.3-2.8,2.8-2.8c0.7,0,1.5,0.3,2,0.8
		c0.1,0.1,0.4,0.5,0.4,0.5c0.2,0.3,0.3,0.7,0.4,1c-0.1,0-0.2,0-0.3,0l0.1,0.8c0.7-0.1,1.4,0,2,0.4C215.6,22.5,216,22.8,216.1,22.9z
		 M229.1,23.8c-1.1,1.1-2.9,1.1-4,0l-0.6,0.6c0.6,0.6,1.4,1,2.2,1c-0.1,0.6-0.4,1.2-0.8,1.6c-0.5,0.5-1.2,0.8-2,0.8
		c-1.6,0-2.8-1.3-2.8-2.8c0-0.7,0.3-1.5,0.8-2c0.4-0.4,1-0.7,1.6-0.8c0,0.1,0,0.2,0,0.3l0.8-0.1c-0.2-0.9,0.1-1.9,0.8-2.5
		c1.1-1.1,2.9-1.1,4,0C230.2,20.9,230.2,22.7,229.1,23.8z"/>
	<g>
		<path class="st9" d="M214,26.5l-0.1,0.8c0.1,0,0.1,0,0.2,0c0.4,0,0.7-0.1,1.1-0.3l-0.4-0.7C214.6,26.4,214.3,26.5,214,26.5z"/>
		<path class="st9" d="M215.3,26l0.6,0.6c0.9-0.9,0.9-2.4,0-3.3l-0.6,0.6C215.9,24.4,215.9,25.4,215.3,26z"/>
		<path class="st9" d="M224,7.3l0.1-0.8c-0.4,0-0.9,0.1-1.3,0.3l0.4,0.7C223.5,7.3,223.7,7.2,224,7.3z"/>
		<path class="st9" d="M222.8,9.9c-0.3-0.3-0.5-0.7-0.5-1.1c0-0.4,0.2-0.8,0.5-1.1l-0.6-0.6c-0.4,0.4-0.7,1-0.7,1.6s0.2,1.2,0.7,1.6
			L222.8,9.9z"/>
	</g>
	<rect x="217.7" y="17.2" transform="matrix(0.7071 -0.7071 0.7071 0.7071 51.539 159.56)" width="1.3" height="0.8"/>
	<g>
		<path class="st9" d="M211.1,14.3l-0.1-0.8c-0.3,0-0.6,0-0.8-0.2l-0.4,0.7c0.3,0.2,0.7,0.3,1.1,0.3C211,14.3,211.1,14.3,211.1,14.3
			z"/>
		<path class="st9" d="M209.8,13.1c-0.3-0.3-0.5-0.7-0.5-1.1c0-0.4,0.2-0.8,0.5-1.1l-0.6-0.6c-0.4,0.4-0.7,1-0.7,1.6
			s0.2,1.2,0.7,1.6L209.8,13.1z"/>
		<path class="st9" d="M228.6,21.9l0.8,0.1c0-0.4-0.1-0.9-0.3-1.3l-0.7,0.4C228.6,21.3,228.6,21.6,228.6,21.9z"/>
		<path class="st9" d="M225.4,20.1l0.6,0.6c0.6-0.6,1.6-0.6,2.2,0l0.6-0.6C227.8,19.2,226.3,19.2,225.4,20.1z"/>
	</g>
</g>
<g>
	<text transform="matrix(1 0 0 1 210.0741 35.3435)" class="st3 st4 st11">Nuxt</text>
	<text transform="matrix(1 0 0 1 210.0741 35.3435)" class="st6 st4 st11">Nuxt</text>
</g>
</svg>
